<svg xmlns="http://www.w3.org/2000/svg" xmlns:xlink="http://www.w3.org/1999/xlink" width="95" height="28" viewBox="0 0 95 28">
    <defs>
        <path id="a" d="M.004 0h12.79v15.167H.005z"/>
    </defs>
    <g fill="none" fill-rule="evenodd">
        <rect width="94.5" height="28" fill="#000" rx="4.667"/>
        <text fill="#FFF" font-family="SFProText-Medium, SF Pro Text" font-size="11.667" font-weight="400">
            <tspan x="36.49" y="18">Cкоро</tspan>
        </text>
        <g transform="translate(11.667 5.833)">
            <mask id="b" fill="#fff">
                <use xlink:href="#a"/>
            </mask>
            <path fill="#FFF" d="M.66 5.575c-1.323 2.225-.482 5.602.982 7.65.73 1.023 1.47 1.942 2.483 1.942.02 0 .039 0 .058-.002.476-.018.82-.16 1.153-.297.373-.154.76-.313 1.365-.313.576 0 .944.154 1.3.303.35.147.711.299 1.245.289 1.141-.02 1.842-1.012 2.46-1.887.645-.913.969-1.8 1.078-2.138l.004-.014a.123.123 0 0 0-.077-.156c-.201-.08-1.964-.837-1.983-2.902-.017-1.678 1.323-2.566 1.591-2.727l.013-.008a.124.124 0 0 0 .056-.08.12.12 0 0 0-.02-.095c-.924-1.31-2.342-1.508-2.912-1.532a2.653 2.653 0 0 0-.254-.012c-.67 0-1.313.245-1.828.442-.357.137-.664.254-.876.254-.238 0-.548-.119-.906-.257-.479-.184-1.022-.392-1.596-.392h-.04c-1.337.019-2.6.76-3.296 1.932z" mask="url(#b)"/>
            <path fill="#FFF" d="M9.457 0c-.81.032-1.78.514-2.36 1.173-.493.553-.975 1.476-.848 2.405a.126.126 0 0 0 .117.108c.055.004.11.006.166.006.792 0 1.645-.424 2.228-1.106.613-.721.924-1.647.83-2.475A.128.128 0 0 0 9.457 0z" mask="url(#b)"/>
        </g>
    </g>
</svg>
