<svg xmlns="http://www.w3.org/2000/svg" xmlns:xlink="http://www.w3.org/1999/xlink" width="75" height="70" viewBox="0 0 75 70">
    <defs>
        <path id="a" d="M.012.003H74.85V70H.012z"/>
    </defs>
    <g fill="none" fill-rule="evenodd">
        <g>
            <mask id="b" fill="#fff">
                <use xlink:href="#a"/>
            </mask>
            <path fill="#D3D3D3" d="M74.295 28.995l-9.558-6.39V1.25c0-.69-.555-1.25-1.24-1.25H11.352c-.686 0-1.24.56-1.24 1.25v21.358L.555 28.995A1.25 1.25 0 0 0 0 30.037v38.71c0 .69.555 1.25 1.24 1.25h72.37c.685 0 1.24-.56 1.24-1.25v-38.71c0-.435-.221-.818-.555-1.042zM10.11 33.367l-3.888-2.08h3.888v2.08zM2.48 32.115l28.509 15.248L2.479 66.418V32.115zM37.424 46.06l32.072 21.437H5.352L37.424 46.06zm6.437 1.303L72.37 32.115v34.304L43.86 47.363zm20.876-16.076h3.89l-3.89 2.08v-2.08zm4.76-2.5h-4.76v-3.182l4.76 3.182zM62.256 2.5v32.193L41.51 45.791l-3.4-2.273a1.23 1.23 0 0 0-1.37 0l-3.4 2.273-20.75-11.099V2.5h49.668zM10.112 28.787H5.353l4.758-3.18v3.18z" mask="url(#b)"/>
        </g>
        <g fill-rule="nonzero">
            <path fill="#D3D3D3" d="M36.128 18.15c2.186-.861 3.714-2.94 3.714-5.355C39.86 9.602 37.159 7 33.853 7c-3.323 0-6.024 2.602-6.024 5.795 0 1.08.713 2.426 2.138 4.04a.346.346 0 0 1-.132.551l-2.114.839a.346.346 0 0 0 .088.665c3.72.426 6.492.18 8.319-.74z"/>
            <path fill="#D3D3D3" d="M49.678 25.177c-1.898-.647-4.275-.414-7.131.698a.138.138 0 0 1-.157-.217c2.202-2.65 3.281-5.908 3.236-9.772-.017-2.196-.56-4.042-1.63-5.537a.66.66 0 0 0-1.195.384c0 6.487-4.23 10.846-11.036 10.846-1.466 0-3.787-.577-6.964-1.732a.692.692 0 0 0-.727 1.138c.656.66 1.235 1.223 1.738 1.692.577.537 1.262 1.149 2.204 1.639 3.056 1.571 5.402 1.757 5.633 1.774.035 3.294-2.346 7.906-5.722 7.906a7.202 7.202 0 0 1-1.493-.169 6.541 6.541 0 0 1-.766-.194.692.692 0 0 0-.81 1.006c.678 1.17 1.915 1.833 3.709 1.993 4.176.371 6.095-.49 10.235-2.89 4.425-2.567 7.784-5.287 10.36-4.611.726.188 1.216.916 1.47 2.184a.692.692 0 0 0 1.347.04c.11-.418.184-.737.222-.957.178-1.081.498-4.19-2.523-5.22z"/>
            <path fill="#FFF" stroke="#FFF" stroke-width=".692" d="M34.27 9.355c1.217 0 2.313.631 3.05 1.617.168.174.322.201.463.084.14-.118.14-.297 0-.537-.857-1.124-2.125-1.854-3.513-1.854-.977 0-1.885.355-2.639.947-.223.183-.288.356-.195.52.094.163.273.18.538.051.651-.512 1.44-.828 2.296-.828z"/>
        </g>
    </g>
</svg>
