<svg xmlns="http://www.w3.org/2000/svg" xmlns:xlink="http://www.w3.org/1999/xlink" width="76" height="76" viewBox="0 0 76 76">
    <defs>
        <path id="a" d="M.005 0H36v44H.005z"/>
    </defs>
    <g fill="none" fill-rule="evenodd">
        <circle cx="38" cy="38" r="38" fill="#FFF"/>
        <g transform="translate(20 16)">
            <mask id="b" fill="#fff">
                <use xlink:href="#a"/>
            </mask>
            <path fill="#2879FF" d="M18 15.899c2.034 0 3.834 1.026 4.927 2.592l-4.664 4.72-1.78-1.801a.842.842 0 0 0-1.2 0l-2.862 2.897A6.13 6.13 0 0 1 11.972 22c0-3.364 2.704-6.101 6.028-6.101zM18 28.1c-1.89 0-3.58-.886-4.686-2.268l2.57-2.6 1.78 1.8a.842.842 0 0 0 1.2 0l4.866-4.925A6.14 6.14 0 0 1 24.028 22c0 3.364-2.704 6.101-6.028 6.101zm-6.473-1.836c1.38 2.138 3.766 3.555 6.473 3.555 4.26 0 7.726-3.508 7.726-7.82S22.26 14.18 18 14.18s-7.726 3.508-7.726 7.82c0 1.518.43 2.936 1.173 4.137.022.045.05.087.08.128z" mask="url(#b)"/>
            <path fill="#2879FF" d="M34.302 34.203h-3.373c.095-.269.146-.558.146-.86v-10.01a6.554 6.554 0 0 1 3.227 5.658v5.212zm-15.95 7.38l-.352.351-.351-.35a9.114 9.114 0 0 1-2.62-5.662h5.942a9.115 9.115 0 0 1-2.62 5.662zM1.697 28.992a6.554 6.554 0 0 1 3.227-5.658v10.01c0 .302.051.591.146.86H1.698v-5.212zm4.925-6.769c0-3.111.607-6.144 1.734-8.945h3.845c.468 0 .849-.384.849-.859s-.38-.86-.85-.86H9.129c.299-.6.622-1.188.97-1.761h15.804a23.986 23.986 0 0 1 3.475 12.425v11.122c0 .474-.38.86-.849.86H7.472a.855.855 0 0 1-.85-.86V22.222zM18 1.856a23.54 23.54 0 0 1 6.756 6.222H11.244A23.54 23.54 0 0 1 18 1.856zm13.062 19.551a25.755 25.755 0 0 0-3.378-11.96A25.365 25.365 0 0 0 18.422.114a.84.84 0 0 0-.844 0 25.367 25.367 0 0 0-9.262 9.333 25.755 25.755 0 0 0-3.378 11.96C1.96 22.7 0 25.675 0 28.991v6.072c0 .474.38.859.85.859h12.475a10.855 10.855 0 0 0 3.132 6.886l.947.945a.841.841 0 0 0 1.192 0l.947-.945a10.855 10.855 0 0 0 3.132-6.886h2.627v4.435c0 .475.38.86.849.86s.849-.385.849-.86v-4.435h8.15c.47 0 .85-.385.85-.86v-6.07c0-3.317-1.961-6.292-4.938-7.585z" mask="url(#b)"/>
        </g>
        <path fill="#2879FF" d="M35.283 29.277a.85.85 0 0 0 .6-.251.871.871 0 0 0 .25-.608.871.871 0 0 0-.25-.608.85.85 0 0 0-.6-.251.85.85 0 0 0-.6.251.871.871 0 0 0-.249.608c0 .226.09.448.249.608a.85.85 0 0 0 .6.251M29.85 54.22a.854.854 0 0 0-.85.86v2.648c0 .474.38.859.85.859.468 0 .848-.385.848-.86V55.08c0-.474-.38-.86-.849-.86M46.15 58.281a.85.85 0 0 0-.6.252.871.871 0 0 0-.248.608c0 .226.09.447.249.607a.85.85 0 0 0 .6.252.85.85 0 0 0 .6-.252.871.871 0 0 0 .249-.607.871.871 0 0 0-.249-.608.85.85 0 0 0-.6-.252"/>
    </g>
</svg>
