<svg xmlns="http://www.w3.org/2000/svg" width="76" height="76" viewBox="0 0 76 76">
    <g fill="none" fill-rule="evenodd">
        <circle cx="38" cy="38" r="38" fill="#FFF"/>
        <g fill="#2879FF">
            <path d="M48.074 14H27.922a3.53 3.53 0 0 0-3.524 3.523v40.954A3.53 3.53 0 0 0 27.922 62h20.152a3.527 3.527 0 0 0 3.524-3.523V17.523A3.527 3.527 0 0 0 48.074 14zM26 50.801h24V20.398H26v30.403zm1.922-35.199h20.152c1.063 0 1.926.863 1.926 1.921v1.278H26v-1.278c0-1.058.863-1.921 1.922-1.921zm20.152 44.796H27.922A1.925 1.925 0 0 1 26 58.477v-6.079h24v6.079a1.926 1.926 0 0 1-1.926 1.921z"/>
            <path d="M38 53.199a3.203 3.203 0 0 0-3.199 3.199A3.204 3.204 0 0 0 38 59.602a3.204 3.204 0 0 0 3.199-3.204A3.203 3.203 0 0 0 38 53.199zM38 58a1.604 1.604 0 0 1-1.602-1.602A1.6 1.6 0 1 1 38 58zM34.801 18H38a.802.802 0 0 0 0-1.602h-3.199a.8.8 0 0 0-.801.801c0 .442.355.801.801.801z"/>
        </g>
    </g>
</svg>
