<svg xmlns="http://www.w3.org/2000/svg" width="76" height="76" viewBox="0 0 76 76">
    <g fill="none" fill-rule="evenodd">
        <circle cx="38" cy="38" r="38" fill="#FFF"/>
        <path fill="#2879FF" d="M55.043 28.171l-3.081 3.082-.001.001v.002L30.852 52.363c-.69.69-7.054 2.637-8.62 2.637-.258 0-.635-.033-.917-.313-.329-.33-.701-.703.582-5.019.276-.927 1.216-3.995 1.74-4.52l24.19-24.191a3.243 3.243 0 0 1 2.31-.957c.871 0 1.69.34 2.307.957l2.598 2.597c.617.616.957 1.437.957 2.309 0 .872-.34 1.692-.957 2.308zM22.67 53.33c.996-.14 2.809-.652 4.36-1.153l-3.21-3.212c-.505 1.587-1.01 3.432-1.15 4.365zm1.737-6.085l4.342 4.342c.479-.178.839-.328.989-.417l20.491-20.493-4.906-4.906-20.491 20.493c-.105.17-.254.524-.425.98zm29.482-22.537l-2.598-2.597c-.617-.617-1.691-.616-2.308 0l-2.506 2.505 4.906 4.907 2.506-2.506c.309-.308.479-.718.479-1.154 0-.436-.17-.846-.479-1.155zm-1.328 8.049a.815.815 0 1 1 1.154 1.154l-7.163 7.163a.814.814 0 0 1-1.154 0 .815.815 0 0 1 0-1.154l7.163-7.163z"/>
    </g>
</svg>
