<svg xmlns="http://www.w3.org/2000/svg" xmlns:xlink="http://www.w3.org/1999/xlink" width="14" height="14" viewBox="0 0 14 14">
    <defs>
        <path id="a" d="M2.72 13.697a1.576 1.576 0 0 1-.548-1.75l.865-2.764a.438.438 0 0 0-.15-.481L.622 6.994A1.562 1.562 0 0 1 0 5.809v-.146c.006-.143.031-.287.076-.43.207-.66.77-1.087 1.433-1.087h2.798c.186 0 .34-.11.394-.282l.864-2.78C5.771.423 6.334 0 6.999 0c.666 0 1.228.425 1.434 1.082l.865 2.783c.053.17.208.281.393.281h2.798c.664 0 1.227.427 1.433 1.087.207.662-.007 1.354-.547 1.76l-1.543 1.165c-.244.185-.237.19-.696.544a.502.502 0 0 0-.15.536c.115.342.155.518.248.816l.592 1.892a1.576 1.576 0 0 1-.548 1.751 1.473 1.473 0 0 1-.817.303h-.138a1.474 1.474 0 0 1-.817-.303l-2.264-1.708a.4.4 0 0 0-.486 0l-2.264 1.708a1.473 1.473 0 0 1-.817.303h-.138a1.473 1.473 0 0 1-.817-.303z"/>
    </defs>
    <use fill="#FFB839" fill-rule="evenodd" xlink:href="#a"/>
</svg>
