<svg xmlns="http://www.w3.org/2000/svg" width="28" height="30" viewBox="0 0 28 30">
    <g fill="none" fill-rule="nonzero">
        <path fill="#2879FF" d="M12.204 10.973c2.12-.848 3.602-2.893 3.602-5.27C15.823 2.56 13.203 0 9.997 0 6.774 0 4.154 2.56 4.154 5.703c0 1.062.692 2.389 2.076 3.979a.34.34 0 0 1-.13.539l-2.052.826a.34.34 0 0 0 .088.654c3.606.419 6.296.176 8.068-.728z"/>
        <path fill="#2879FF" d="M25.347 17.888c-1.84-.637-4.144-.408-6.913.685a.136.136 0 0 1-.156-.213c2.136-2.608 3.182-5.813 3.139-9.616-.017-2.157-.542-3.97-1.575-5.44a.641.641 0 0 0-1.166.37c0 6.384-4.102 10.673-10.704 10.673-1.42 0-3.665-.566-6.736-1.697a.68.68 0 0 0-.722 1.115 62.332 62.332 0 0 0 1.684 1.663c.56.528 1.223 1.13 2.137 1.612 2.965 1.546 5.24 1.73 5.464 1.746.035 3.242-2.275 7.78-5.55 7.78-.5 0-.983-.066-1.448-.166a6.29 6.29 0 0 1-.729-.186.68.68 0 0 0-.8.986c.659 1.15 1.858 1.803 3.597 1.96 4.051.366 5.913-.482 9.929-2.843 4.292-2.527 7.55-5.203 10.049-4.538.696.183 1.169.886 1.417 2.11a.68.68 0 0 0 1.327.033c.1-.39.168-.688.203-.897.173-1.064.483-4.123-2.447-5.137z"/>
        <path fill="#FFF" stroke="#FFF" stroke-width=".681" d="M10.402 2.318c1.18 0 2.243.62 2.958 1.591.163.17.313.198.449.082s.136-.292 0-.528c-.831-1.107-2.061-1.825-3.407-1.825-.948 0-1.829.35-2.56.932-.217.18-.28.351-.19.512.091.16.265.178.522.05.632-.504 1.396-.814 2.228-.814z"/>
    </g>
</svg>
