<svg version="1.0" xmlns="http://www.w3.org/2000/svg" width="917.333" height="917.333" viewBox="0 0 688 688"><path d="M238.5 1.6c-34.1 5.9-65.2 24.9-85.8 52.2-35.2 46.7-37.5 109.6-5.9 158.7 5.2 8.1 17.6 23 20.9 25.2 1.3.9 2.3 2 2.3 2.7 0 .6-15.6 11.4-34.5 24-19 12.6-34.5 23.2-34.5 23.6 0 2.7 93.9 2.3 119-.5 43.2-4.8 69.1-11.7 96.7-25.5 18.6-9.3 26.4-14.9 39.3-27.9 19.6-19.8 32.8-45.8 37.5-73.6 2.4-14.2 2.3-36-.3-49.1-5.9-29.3-18.5-52.7-39.6-73.2-20.7-20.1-44.7-32.1-73.1-36.7-11.1-1.8-31.3-1.8-42 .1zm45 32.4c16.7 4.5 31.6 12.4 45.2 24 10.5 8.8 10.7 9.5 4.8 14.7l-4.8 4.2-7.8-7.2C291 41.9 249 36.6 212.3 56l-9.1 4.9-3.7-5.6c-4.3-6.4-4.6-5.8 7.5-12.2 8.8-4.6 20.7-8.8 30.5-10.7 10.7-2.1 35.8-1.2 46 1.6z"/><path d="M443.4 34.1c2.8 20.3 3.3 43.6 1.6 65.5-8.7 107.2-65.2 184.8-156.7 215.3-30.2 10.1-50.7 13.1-94 13.8-55.6.9-92.9-2.8-120.8-12.2-10.5-3.5-28.2-12.1-37-17.8-3.8-2.5-7.1-4.4-7.3-4.2-.9.9 4.5 14.5 9.7 24.9 13.2 26.1 32.6 47.8 57.6 64.5 36.4 24.4 96.7 47 137.8 51.7 3.1.3 5.9 1 6.2 1.3.8 1.4-1.5 25.6-3.5 36.8-9.7 53.2-38 104.4-71.9 129.9-10.9 8.2-24.1 14.6-35.6 17.4-7.8 2-10.8 2.2-24 1.8-26.8-.9-50.4-7.7-70.3-20.4-2.9-1.9-5.4-3.4-5.6-3.4-.7 0 1.4 8.2 4 16 7.2 21.3 22.6 41.9 39.8 53.4 20 13.2 39.9 18 80.6 19.3 49.7 1.6 85.3-6.8 134.5-31.7 34.2-17.3 57.8-31.6 148-89.7 68.8-44.3 99.8-58.6 130-60 28-1.3 45.5 9 59.5 35 4.6 8.6 10.2 24.9 12.5 36.7 2.5 12.3 2.4 12.2 5.7 5 18.7-41 21.7-88 7.8-121.5-18.1-43.2-65.3-61.8-129.9-50.9-21.7 3.6-55.3 13.8-75.5 22.8-3.3 1.4-6.1 2.5-6.3 2.3-.2-.2 2.3-4.7 5.6-9.9 40.6-64.6 64.1-147.9 64.1-227.3 0-60.1-11.6-105.2-35.2-137-5.6-7.4-27-30-30.2-31.7-1.8-1-1.8-.7-1.2 4.3z"/></svg>