<svg xmlns="http://www.w3.org/2000/svg" xmlns:xlink="http://www.w3.org/1999/xlink" width="441" height="350" viewBox="0 0 441 350">
    <defs>
        <path id="a" d="M80.75 18.741C81.793 11.173 75.915 1.248 65.83.393 46.8-1.458 52.319 13.249 43.169 13.46c-8.353-.165-2.126-12.724-21.132-6.432-4.55 1.407-6.857 6.696-10.072 13.232C5.452 12.811 1.46 17.662.262 24.944a324.251 324.251 0 0 0 94.979 0c1.248-7.924-11.237-11.028-14.49-6.203z"/>
        <path id="b" d="M-67.307-69.083c.808-5.87-3.752-13.569-11.573-14.232-14.76-1.435-10.481 9.972-17.578 10.137-6.479-.128-1.649-9.87-16.391-4.989-3.53 1.09-5.318 5.194-7.813 10.263-5.05-5.779-8.147-2.016-9.076 3.633a251.506 251.506 0 0 0 73.67 0c.968-6.147-8.715-8.554-11.239-4.812z"/>
        <path id="c" d="M-237.307 10.917c.808-5.87-3.752-13.569-11.573-14.232-14.76-1.435-10.481 9.972-17.578 10.137-6.479-.128-1.649-9.87-16.391-4.989-3.53 1.09-5.318 5.194-7.813 10.263-5.05-5.779-8.147-2.016-9.076 3.633a251.506 251.506 0 0 0 73.67 0c.968-6.147-8.715-8.554-11.239-4.812z"/>
        <path id="d" d="M.13 3.182C-.016 2.042-.025 1.04.144.444h.042S.167.495.145.572C.054.882.113 2.69.131 3.182"/>
        <path id="f" d="M3.71 4.644L.279.37c.319.387.927 1.083 1.357 1.325l.023.013a.423.423 0 0 0 .023.13c.033.001.201.044.457.107.791.34 1.412.363 1.57.363h.007c-.135.486-.128 1.305-.01 2.236l.004.101"/>
        <path id="g" d="M.673.499C.353.419.143.363.102.361A.557.557 0 0 1 .073.195c.206.118.407.219.6.304"/>
        <path id="i" d="M.349.474C.184.268.08.131.08.131l.269.343"/>
        <path id="k" d="M4.538.213C4.883-.072.315 6.484.315 6.484S.648 3.262.098 2.348c-.051-.084 1.744.085 4.44-2.135z"/>
        <path id="m" d="M5.569.272C5.973-.088.631 8.22.631 8.22S.984 2.776.307 2.964c-.214.062 2.112.119 5.262-2.692z"/>
    </defs>
    <g fill="none" fill-rule="evenodd">
        <path fill="#1056CA" d="M381.493 303.333h-1.357l-12.65-102.666h1.354l12.653 102.666M337.474 303.333h-1.354l-12.652-102.666h1.355l12.651 102.666"/>
        <path fill="#2879FF" d="M320.134 264h71.363v-94.667h-71.363z"/>
        <path fill="#2879FF" d="M333.488 302h-1.35l29.332-77.333h1.348L333.488 302M290.137 302h-1.35l29.33-77.333h1.35L290.137 302"/>
        <path fill="#D2D2D2" d="M291.455 263.333l25-83.333h69.706l-25.001 83.333z"/>
        <path fill="#E9E9E9" d="M294.123 253.333L319.12 170h69.708l-25 83.333z"/>
        <path fill="#1056CA" d="M323.468 172h61.36v-4h-61.36z"/>
        <path fill="#6EA1F6" d="M235.432 98.667v-14l-144.06 1.376 17.655 9.139c20.737 0 126.405 3.485 126.405 3.485"/>
        <g fill="#E7EEF9" transform="translate(344.81 110.667)">
            <use xlink:href="#a"/>
            <use xlink:href="#b"/>
            <use xlink:href="#c"/>
        </g>
        <path fill="#B7B7BA" d="M206.552 1.451a106.112 106.112 0 0 0-9.887-.624l.013-.827c3.284.052 6.637.264 9.965.63l-.091.821zm-29.584 1.075l-.16-.81a91.501 91.501 0 0 1 9.89-1.379l.07.824c-3.33.282-6.627.741-9.8 1.365zm48.997 2.836a113.44 113.44 0 0 0-9.618-2.385l.163-.81c3.248.655 6.507 1.463 9.69 2.402l-.235.793zM158.219 8.69l-.362-.744a74.616 74.616 0 0 1 9.275-3.721l.257.785a73.693 73.693 0 0 0-9.17 3.68zm86.156 3.933a109.269 109.269 0 0 0-9.04-4.04l.304-.77a110.21 110.21 0 0 1 9.109 4.072l-.373.738zm-102.387 7.164l-.57-.6a63.32 63.32 0 0 1 7.787-6.252l.467.683a62.455 62.455 0 0 0-7.684 6.17zM261.08 23.17c-2.55-2-5.272-3.914-8.086-5.686l.441-.7a96.9 96.9 0 0 1 8.157 5.737l-.512.65zM130.062 35.376l-.73-.391a63.501 63.501 0 0 1 5.405-8.384l.66.501a62.576 62.576 0 0 0-5.335 8.274zm145.04 1.66a80.126 80.126 0 0 0-6.596-7.345l.582-.588a80.526 80.526 0 0 1 6.664 7.423l-.65.51zM123.29 53.83l-.809-.18a77.444 77.444 0 0 1 2.78-9.565l.78.282a76.784 76.784 0 0 0-2.751 9.463zm161.746.163a67.194 67.194 0 0 0-4.363-8.829l.715-.417a67.879 67.879 0 0 1 4.416 8.937l-.768.31zM121.543 65.077l-.826-.076c.048-.512.098-1.02.153-1.527l.825.089a89.094 89.094 0 0 0-.152 1.514zm167.971 8.02a63.845 63.845 0 0 0-1.498-9.722l.809-.188a64.869 64.869 0 0 1 1.516 9.848l-.827.063zm-.539 19.774l-.812-.168c.68-3.269 1.14-6.553 1.368-9.761l.827.058a74.956 74.956 0 0 1-1.383 9.87zm51.904 9.887a71.5 71.5 0 0 0-9.565-.648h-.29l-.003-.827h.293c3.21 0 6.464.22 9.676.655l-.111.82zm-29.354 2.203l-.234-.794a72.07 72.07 0 0 1 9.762-2.136l.122.817a71.158 71.158 0 0 0-9.65 2.113zm48.376 2.983a78.927 78.927 0 0 0-9.342-3.21l.22-.796c3.171.87 6.348 1.96 9.442 3.242l-.32.764zm-77.2 3.807l-.753-.341a97.189 97.189 0 0 0 3.626-9.186l.786.262a97.516 97.516 0 0 1-3.658 9.265zm10.784 1.175l-.427-.709a82.208 82.208 0 0 1 8.857-4.607l.337.756a81.142 81.142 0 0 0-8.767 4.56zm83.625 4.673a86.838 86.838 0 0 0-8.323-5.33l.406-.72a87.542 87.542 0 0 1 8.404 5.38l-.487.67zm-99.38 7.235l-.564-.606a103.428 103.428 0 0 1 7.633-6.414l.502.658a102.34 102.34 0 0 0-7.571 6.362zm-4.775 4.261l-.69-.458a131.28 131.28 0 0 0 5.195-8.42l.722.406a132.714 132.714 0 0 1-5.227 8.472zm118.735 1.797a87.043 87.043 0 0 0-6.917-7.06l.56-.61a88.06 88.06 0 0 1 6.982 7.127l-.625.543zm11.044 16.32a74.916 74.916 0 0 0-5.003-8.506l.686-.463a75.116 75.116 0 0 1 5.054 8.6l-.737.369zm5.847 18.714c-.379-3.14-1.095-6.368-2.121-9.596l.789-.25c1.044 3.277 1.768 6.556 2.156 9.747l-.824.1zm-1.453 19.603l-.772-.303a36.49 36.49 0 0 0 2.325-9.5l.823.09a37.378 37.378 0 0 1-2.376 9.713zm-11.993 15.804l-.517-.647c2.652-2.1 4.976-4.44 6.908-6.958l.66.503c-1.975 2.57-4.347 4.96-7.05 7.102zM89.043 47.114a51.175 51.175 0 0 0-9.854-.957l.002-.824c3.433.007 6.802.335 10.016.973l-.164.808zm-29.345 2.318l-.269-.779a64.268 64.268 0 0 1 9.74-2.467l.143.811a63.38 63.38 0 0 0-9.614 2.435zm47.195 5.715a40.196 40.196 0 0 0-8.434-5.067l.343-.75a40.995 40.995 0 0 1 8.609 5.172l-.518.645zm-64.707 3.399l-.5-.66a63.343 63.343 0 0 1 8.507-5.304l.388.73a62.395 62.395 0 0 0-8.395 5.234zM28.753 72.828l-.708-.434a50.752 50.752 0 0 1 6.139-7.881l.608.562a49.905 49.905 0 0 0-6.04 7.753zm-6.361 18.338l-.83-.078a41.538 41.538 0 0 1 2.14-9.72l.788.27a40.724 40.724 0 0 0-2.098 9.528zm1.803 19.526c-1.152-3.215-1.962-6.463-2.406-9.656l.825-.112c.437 3.137 1.233 6.33 2.367 9.494l-.786.274zm9.641 17.365c-2.072-2.749-3.915-5.548-5.476-8.321l.729-.4c1.542 2.74 3.364 5.51 5.416 8.229l-.669.492zm13.555 14.593a118.826 118.826 0 0 1-7.125-6.977l.612-.558a117.917 117.917 0 0 0 7.074 6.926l-.561.609zm12.16 8.819l-1.576-.216a70.772 70.772 0 0 0-6.458-.589l.037-.822c1.629.07 3.305.206 4.999.402-.514-.394-1.022-.787-1.524-1.18l.518-.645c.892.7 1.804 1.4 2.737 2.1l1.267.95zm-27.538 1.866l-.284-.774c3.067-1.094 6.357-1.875 9.78-2.321l.11.816c-3.364.439-6.597 1.205-9.606 2.28zM15.715 164.07l-.613-.557a42.148 42.148 0 0 1 7.638-6.48l.462.685a41.269 41.269 0 0 0-7.487 6.352zm-10.11 16.718l-.78-.289c1.215-3.203 2.664-6.225 4.307-8.98l.718.417c-1.619 2.715-3.047 5.693-4.245 8.852zm-4.323 19.13l-.829-.08a83.136 83.136 0 0 1 1.549-9.807l.814.176a82.264 82.264 0 0 0-1.534 9.71zm-.775 19.737A109.122 109.122 0 0 1 0 209.747l.833-.003c.015 3.213.184 6.521.503 9.832l-.83.078zm3.526 19.508a126.728 126.728 0 0 1-2.159-9.683l.82-.146c.58 3.198 1.303 6.434 2.146 9.622l-.807.207zM10.56 257.9a130.348 130.348 0 0 1-3.62-9.246l.787-.268a130.236 130.236 0 0 0 3.598 9.189l-.765.325zm9.327 17.537a125.491 125.491 0 0 1-5.009-8.59l.738-.383a124.864 124.864 0 0 0 4.975 8.533l-.704.44zm12.067 15.819c-2.206-2.425-4.352-5-6.374-7.656l.665-.496a113.676 113.676 0 0 0 6.328 7.601l-.62.551zm14.741 13.42A101.738 101.738 0 0 1 39 298.313l.565-.605a101.137 101.137 0 0 0 7.632 6.309l-.502.656zm17.162 10.216A93.983 93.983 0 0 1 55 310.233l.431-.707a92.597 92.597 0 0 0 8.777 4.617l-.35.748zm18.983 6.31a92.383 92.383 0 0 1-9.667-2.636l.265-.781a91.24 91.24 0 0 0 9.58 2.611l-.178.805zm29.936 1.706l-.074-.82c3.243-.29 6.564-.732 9.87-1.318l.146.811a117.054 117.054 0 0 1-9.942 1.327zm-10.024.426a100.078 100.078 0 0 1-10.013-.55l.088-.819c3.25.344 6.591.528 9.93.546l-.005.823z"/>
        <path fill="#C25F37" d="M289.525 276.598c.159-2.598.63-5.05 1.407-7.134 0 0-.6-9.993.546-12.544 2.114-4.727 6.605-3.421 6.605-3.421.39.221-2.074 21.104-2.175 21.68-1.376 7.742-1.887 9.424-1.782 17.462.035 2.808-.788 6.872 1.35 10.026l-4.905-3.728c-.44-1.147-1.153-2.403-.591-3.059 1.505-1.766 1.896-2.403 1.401-5.01-.476-2.538-2.307-6.823-1.856-14.272"/>
        <path fill="#0E1220" d="M289.596 302.482c1.195.291 1.05-1.199 1.277-2.2.842.374 1.207 1.59 2.209 2.348.575.422 3.658 1.26 4.376.154-2.118-.718-2.535-.711-2.852-1.02-2.21-1.423-2.848-3.786-4.242-5.764-3.385.99-.173 3.907-.768 6.482"/>
        <path fill="#C25F37" d="M303.773 292.09c.389 2.61-.29 7.904 2.355 10.429-.207-.092-1.075.221-1.284.131l-3.809-3.637c-.597-1.047-1.487-2.146-1.006-2.901 1.28-2.045 1.588-2.752.743-5.229-.82-2.405-3.241-6.266-3.785-13.71-.187-2.597-.039-5.109.464-7.324 0 0-1.94-9.74-1.129-12.485 1.5-5.084 6.197-4.69 6.197-4.69.425.14.738 21.237.712 21.828-.348 7.913-.64 9.676.542 17.589"/>
        <path fill="#0E1220" d="M298.933 301.814c1.195.291 1.05-1.2 1.277-2.198.844.373 1.208 1.588 2.208 2.347.576.424 3.659 1.261 4.377.153-2.117-.717-2.536-.709-2.85-1.017-2.213-1.424-2.85-3.788-4.242-5.766-3.388.99-.177 3.905-.77 6.481"/>
        <path fill="#0A0B09" d="M290.355 173.507c-.355 3.539.038 3.509-2.426 5.786-.32 1.705 1.386 3.14 1.342 3.412-2.721-1.456-3.652-2.817-4.133-3.328-1.283-1.863-4.301-5.181-.502-8.804 1.91-1.82 3.36-1.793 5.223-1.765.791.012 1.658.024 2.666-.106 3.46-.446 5.446 3.439 5.953 5.998.5 2.548.676 7.274-1.62 10.145.226-.45.306-1.965.655-2.66-1.217 1.044-1.796 2.26-2.832 3.148-.177-.16 2.581-4.682.838-6.289-1.032-1.657-1.59-2.031-3.202-3.787.123.708.189 1.067.299 1.704-.772-1.177-1.388-2.119-2.26-3.454"/>
        <path fill="#CC7545" d="M286.817 177.718c-.144-1.022 3.692-8.296 4.977-8.375.876-.051 3.936-.374 4.052 13.992a1.67 1.67 0 0 1-1.065-.197c-1.284-.713-.836 4.247.348 7.265.791 2.047 2.901.668 4.33 1.88-.557 3.247-4.575 5.913-5.126 9.152-2.064 1.056-.952 1.623-1.774.921-.375-1.657-6.828-6.12-7.106-7.77 5.936-4.559 3.674-11.504 3.72-11.201.086-1.575-2.29-5.17-2.356-5.667z"/>
        <path fill="#FFB839" d="M306.128 209.22a139.138 139.138 0 0 0-3.017 2.78c-1.879-2.266-3.16-5.612-4.496-6.908-9.714-9.424-2.887-7.523-2.036-14.425 0 0 3.247.376 4.162 1.078 2.512 1.934 2.676 6.996 4.705 10.827.002.008.551 1.748.406.592l.276 6.056"/>
        <path fill="#C25F37" d="M324.774 197.202c1.011-1.365 2.356-3.74 2.968-4.523.801-1.021 1.456-.841 1.456-.841.195.315-.394.81-.401 1.18-.002.89 1.584.02 1.871-.227.696-.601 1.421-1.19 1.873-1.396.461-.212.277.189.669.223.352.028.805.11.894.535.021.08.163.201.306.272.886.424-7.848 4.374-8.781 5.29-.169.156-.933.804-1.084.952-.334-.482.562-.99.23-1.465"/>
        <path fill="#CC7545" d="M327.237 196.898c-4.696 2.105-10.61 11.317-14.924 13.992-2.245 1.39-6.067-.536-1.048-5.089 0 0 9.843-6.433 14.563-10.294.888-.727 2.173 1.046 1.41 1.39"/>
        <path fill="#FFB839" d="M296.227 190.782c3.195 3.774 6 9.768 12.62 14.405 1.237 2.12.398 4.85-.654 5.484-4.87 2.945-8.763-4.785-11.5-6.47-11.401-7.024-.541-6.706-1.184-13.534l.718.115"/>
        <path fill="#CC7545" d="M296.163 176.67c-.278-.666-1.357-5.188-2.23-5.337-2.97.028-2.275.845-2.46 3.495-.094 1.392.209 8.481.286 8.51.172.01 4.02 1.238 4.81.325.104-.122-.385-1.954-.056-2.169.32-.217.299-.44.169-.718-.12-.285-.168-.198.077-.394.24-.182.179-.492-.127-.59-.478-.147.294-.7.722-1.206.427-.5-.564-.419-1.19-1.916"/>
        <path fill="#333" d="M295.413 176.71c.05-.08-1.015-.068-1.957.188 0 0 2.133.081 1.994-.029-.104-.074-.166-.061-.037-.158"/>
        <g transform="translate(294.123 183.333)">
            <mask id="e" fill="#fff">
                <use xlink:href="#d"/>
            </mask>
            <path fill="#DDA28B" d="M-.536.53l.502 2.69.031-.006-.502-2.69" mask="url(#e)"/>
            <path fill="#DDA18B" d="M-.505.525l.502 2.69.032-.006-.503-2.69" mask="url(#e)"/>
            <path fill="#DEA28C" d="M-.474.52L.03 3.209l.14-.024L-.335.496" mask="url(#e)"/>
            <path fill="#DEA18B" d="M-.334.496l.502 2.69L.2 3.18-.303.491" mask="url(#e)"/>
            <path fill="#DDA08B" d="M-.303.491L.199 3.18l.016-.003L-.288.488" mask="url(#e)"/>
            <path fill="#DDA08B" d="M-.288.488l.503 2.69.186-.032L-.1.456" mask="url(#e)"/>
            <path fill="#DD9F8B" d="M-.101.457l.502 2.689.031-.006L-.07.451" mask="url(#e)"/>
            <path fill="#DD9F8B" d="M-.07.451l.502 2.69.14-.024L.07.427" mask="url(#e)"/>
            <path fill="#DD9F8B" d="M.07.428l.502 2.689.031-.006L.101.422" mask="url(#e)"/>
            <path fill="#DD9E8B" d="M.101.422l.502 2.69.078-.013L.179.409" mask="url(#e)"/>
        </g>
        <use fill="#C25F37" transform="translate(290.121 181.333)" xlink:href="#f"/>
        <g transform="translate(291.455 182)">
            <mask id="h" fill="#fff">
                <use xlink:href="#g"/>
            </mask>
            <path fill="#D88A6E" d="M-.013.21L.06.608.493.531.423.132" mask="url(#h)"/>
            <path fill="#D7896D" d="M.423.133l.07.398.218-.039L.64.094" mask="url(#h)"/>
            <path fill="#D7896D" d="M.64.094l.07.398.016-.003-.07-.398" mask="url(#h)"/>
            <path fill="#D7886D" d="M.655.091l.071.398.031-.005-.07-.398" mask="url(#h)"/>
        </g>
        <g transform="translate(290.121 181.333)">
            <mask id="j" fill="#fff">
                <use xlink:href="#i"/>
            </mask>
            <path fill="#D88A6E" d="M.02.141l.068.38.34-.06L.36.08" mask="url(#j)"/>
        </g>
        <path fill="#0A0B09" d="M286.152 177.206c.632 5.196 5.832 8.127 5.832 8.127-.827-3.87-.692-4.81-1.004-4.424-.64.8-1.03-.315-1.118-1.218-.47-4.886 1.443-1.315 1.443-1.315-.207-1.192 1.377-4.312 1.991-5.583.601-1.265 1.494-1.727 1.494-1.727-.813-1.392-5.547-3.274-7.138.43-.913 2.124-1.704 4.035-1.5 5.71z"/>
        <path fill="#FFB839" d="M286.383 216.824c-.047-.423-2.525-8.79-3.11-10.352-2.719-7.424-3.575-7.048-2.973-11.03.465-3.065 3.794-4.882 5.35-4.77 2.716.229 13.665 4.77 15.5 6.122.11.081 1.266 1.056 1.455 1.706.324 1.118.582 1.974.797 3.26.032.196.113 2.28 0 2.439-.007 10.933.068 5.12 0 8.316-.104 11.938-1.08 49.421-3.51 59.485-3.607-1.337-5.756-2.32-9.985-3.158-1.783-20.634-3.492-32.206-4.024-37.527-.359-4.353 2.007-4.913.5-14.491z"/>
        <path fill="#CC7545" d="M299.347 224.393c1.262 1.178 3.477 2.77 4.202 3.484.944.933.743 1.65.743 1.65-.31.2-.757-.474-1.111-.497-.85-.04-.087 1.753.137 2.08.546.799 1.08 1.623 1.259 2.134.184.524-.193.3-.24.73-.042.391-.14.89-.55.969-.077.022-.2.17-.272.324-.444.962-3.86-8.876-4.693-9.952-.144-.191-.731-1.066-.864-1.24.473-.35.92.665 1.389.318"/>
        <path fill="#CC7545" d="M301.117 229.747c-2.004-4.846-9.462-8.478-12.078-12.961-.677-1.163.126-.895 1.06-1.477.944-.59 2.325-2.95 4.31.633 0 0 4.384 7.492 8.223 12.435.72.931-1.189 2.16-1.515 1.37"/>
        <path fill="#333" d="M292.122 213.333l-.032-.08.032.08m-.032-.08c-1.64-4.125-3.359-6.1-3.26-9.359-.016-.188-.03-.375-.043-.56.116.005.234.013.35.02.01.185.02.372.027.56-.17 3.288 1.321 5.299 2.926 9.34M304.008 213.333c-.186-2.462-.302-4.533-.204-6.382.2-3.825.345-6.588-2.345-9.419l.15-.199c2.774 2.914 2.625 5.734 2.42 9.637-.095 1.836-.206 3.92-.021 6.363"/>
        <path fill="#1056CA" d="M110.713 309.333l-1.74-214.641L91.684 86l-.312 212.918c0 .73 19.342 10.415 19.342 10.415"/>
        <path fill="#2879FF" d="M126.766 94.667h-17.387s.005 213.346.013 214h132.042v-214H126.766"/>
        <path fill="#FFFFFE" d="M115.664 108.044c1.268-.134 2.313.048 2.325.405l.06 1.947c.011.358-1.016.76-2.283.894-1.268.132-2.314-.05-2.324-.406l-.061-1.947c-.012-.357 1.016-.76 2.283-.893"/>
        <path fill="#2489A6" d="M118.716 108.192c-.583 3.546-2.382 5.311-5.83 5.719-3.183.377-7.753-.438-13.975-2.494-3.253-1.074-5.756-2.455-7.24-3.99-2.187-2.263-2.178-4.83.028-7.427l.292.119c-2.177 2.561-2.196 5.085-.056 7.3 1.437 1.487 3.87 2.823 7.031 3.87 6.13 2.025 10.622 2.829 13.731 2.46 3.374-.397 5.136-2.14 5.712-5.642l.307.085"/>
        <path fill="#14236C" d="M106.631 113.997zm-8.227-2.362c-2.758-1.014-4.923-2.274-6.285-3.655 1.444 1.463 3.777 2.785 6.755 3.825a25.216 25.216 0 0 1-.47-.17zm16.812 2.054c1.75-.884 2.758-2.527 3.175-5.08-.417 2.553-1.425 4.196-3.175 5.08zm3.5-5.134l-.01.072c-.581 3.685-2.378 5.52-5.826 5.947-3.184.392-7.743-.456-13.94-2.593-3.252-1.12-5.779-2.576-7.266-4.185-2.187-2.363-2.181-5.04.014-7.738l.048-.058.578.243-.049.058c-2.138 2.628-2.162 5.213-.069 7.476 1.392 1.504 3.767 2.87 6.85 3.936 6.019 2.077 10.421 2.904 13.461 2.528 3.3-.409 5.025-2.195 5.592-5.793l.01-.072.607.18z"/>
        <path fill="#FFFFFE" d="M115.664 124.044c1.267-.135 2.313.05 2.324.406l.061 1.947c.01.358-1.016.758-2.284.893-1.267.133-2.312-.05-2.323-.407l-.061-1.947c-.011-.357 1.016-.757 2.283-.892"/>
        <path fill="#2489A6" d="M118.716 125.525c-.583 3.546-2.382 5.312-5.83 5.72-3.183.376-7.753-.439-13.975-2.495-3.253-1.075-5.756-2.455-7.24-3.99-2.187-2.263-2.178-4.831.028-7.427l.292.118c-2.177 2.562-2.196 5.086-.056 7.301 1.437 1.487 3.87 2.822 7.031 3.87 6.13 2.024 10.622 2.83 13.731 2.46 3.374-.398 5.136-2.14 5.712-5.642l.307.085"/>
        <path fill="#14236C" d="M106.631 131.33zm-8.227-2.361c-2.758-1.016-4.923-2.275-6.285-3.656 1.444 1.463 3.777 2.786 6.755 3.826-.159-.057-.315-.112-.47-.17zm16.812 2.054c1.75-.885 2.758-2.528 3.175-5.08-.417 2.552-1.425 4.195-3.175 5.08zm3.5-5.135l-.01.073c-.581 3.685-2.378 5.519-5.826 5.946-3.184.393-7.743-.455-13.94-2.593-3.252-1.12-5.779-2.576-7.266-4.184-2.187-2.364-2.181-5.04.014-7.738l.048-.059.578.243-.049.058c-2.138 2.628-2.162 5.213-.069 7.477 1.392 1.503 3.767 2.87 6.85 3.935 6.019 2.078 10.421 2.904 13.461 2.528 3.3-.409 5.025-2.195 5.592-5.793l.01-.072.607.18z"/>
        <path fill="#FFFFFE" d="M114.996 140.711c1.268-.135 2.314.049 2.325.406l.061 1.947c.01.357-1.016.758-2.284.893-1.267.132-2.313-.05-2.323-.406l-.061-1.947c-.012-.357 1.016-.76 2.282-.893"/>
        <path fill="#2489A6" d="M118.716 141.526c-.583 3.545-2.382 5.31-5.83 5.718-3.183.377-7.753-.438-13.975-2.494-3.253-1.074-5.756-2.454-7.24-3.989-2.187-2.264-2.178-4.832.028-7.428l.292.118c-2.177 2.562-2.196 5.086-.056 7.301 1.437 1.487 3.87 2.823 7.031 3.87 6.13 2.025 10.622 2.83 13.731 2.461 3.374-.398 5.136-2.14 5.712-5.643l.307.086"/>
        <path fill="#14236C" d="M106.631 147.33zm-8.227-2.36c-2.758-1.016-4.923-2.275-6.285-3.656 1.444 1.463 3.777 2.785 6.755 3.825a33.724 33.724 0 0 1-.47-.17zm16.812 2.053c1.75-.885 2.758-2.527 3.175-5.08-.417 2.553-1.425 4.195-3.175 5.08zm3.5-5.134l-.01.072c-.581 3.685-2.378 5.52-5.826 5.946-3.184.393-7.743-.455-13.94-2.592-3.252-1.12-5.779-2.577-7.266-4.185-2.187-2.363-2.181-5.04.014-7.738l.048-.059.578.243-.049.058c-2.138 2.629-2.162 5.214-.069 7.477 1.392 1.504 3.767 2.87 6.85 3.935 6.019 2.078 10.421 2.904 13.461 2.528 3.3-.408 5.025-2.195 5.592-5.792l.01-.072.607.179z"/>
        <path fill="#FFFFFE" d="M115.664 156.044c1.268-.134 2.313.048 2.325.405l.06 1.947c.011.358-1.016.76-2.283.894-1.268.132-2.314-.05-2.324-.406l-.061-1.948c-.012-.356 1.016-.759 2.283-.892"/>
        <path fill="#2489A6" d="M118.716 157.526c-.583 3.546-2.382 5.311-5.83 5.718-3.183.378-7.753-.438-13.975-2.493-3.253-1.075-5.756-2.456-7.24-3.99-2.187-2.264-2.178-4.832.028-7.428l.292.119c-2.177 2.56-2.196 5.085-.056 7.301 1.437 1.486 3.87 2.822 7.031 3.869 6.13 2.025 10.622 2.83 13.731 2.461 3.374-.398 5.136-2.14 5.712-5.642l.307.085"/>
        <path fill="#14236C" d="M106.631 163.33zm-8.227-2.36c-2.758-1.016-4.923-2.277-6.285-3.657 1.444 1.462 3.777 2.786 6.755 3.826a33.711 33.711 0 0 1-.47-.17zm16.812 2.052c1.75-.884 2.758-2.527 3.175-5.08-.417 2.553-1.425 4.196-3.175 5.08zm3.5-5.134l-.01.072c-.581 3.685-2.378 5.52-5.826 5.947-3.184.392-7.743-.455-13.94-2.592-3.252-1.12-5.779-2.577-7.266-4.185-2.187-2.364-2.181-5.04.014-7.74l.048-.057.578.242-.049.059c-2.138 2.628-2.162 5.213-.069 7.476 1.392 1.504 3.767 2.87 6.85 3.936 6.019 2.077 10.421 2.904 13.461 2.528 3.3-.409 5.025-2.195 5.592-5.793l.01-.072.607.18z"/>
        <path fill="#FFFFFE" d="M115.664 172.71c1.267-.134 2.313.05 2.324.407l.061 1.947c.01.358-1.016.759-2.284.892-1.267.134-2.312-.049-2.323-.406l-.061-1.947c-.011-.357 1.016-.757 2.283-.892"/>
        <path fill="#14236C" d="M118.716 174.859c-.583 3.546-2.382 5.311-5.83 5.719-3.183.376-7.753-.439-13.975-2.495-3.253-1.074-5.756-2.455-7.24-3.989-2.187-2.264-2.178-4.831.028-7.427l.292.118c-2.177 2.56-2.196 5.085-.056 7.301 1.437 1.486 3.87 2.822 7.031 3.868 6.13 2.026 10.622 2.831 13.731 2.462 3.374-.398 5.136-2.14 5.712-5.643l.307.086"/>
        <path fill="#2489A6" d="M106.631 179.33zm-8.227-2.36c-2.758-1.016-4.923-2.276-6.285-3.657 1.444 1.463 3.777 2.785 6.755 3.826a33.725 33.725 0 0 1-.47-.17zm16.812 2.053c1.75-.885 2.758-2.528 3.175-5.08-.417 2.552-1.425 4.195-3.175 5.08zm3.5-5.135l-.01.073c-.581 3.684-2.378 5.52-5.826 5.946-3.184.392-7.743-.456-13.94-2.593-3.252-1.12-5.779-2.576-7.266-4.184-2.187-2.364-2.181-5.04.014-7.738l.048-.059.578.243-.049.058c-2.138 2.629-2.162 5.214-.069 7.477 1.392 1.503 3.767 2.87 6.85 3.935 6.019 2.078 10.421 2.904 13.461 2.528 3.3-.409 5.025-2.195 5.592-5.793l.01-.072.607.18z"/>
        <path fill="#FFFFFE" d="M114.996 188.711c1.268-.135 2.314.048 2.325.405l.061 1.947c.01.358-1.016.758-2.284.893-1.267.134-2.313-.05-2.323-.405l-.061-1.947c-.012-.358 1.016-.76 2.282-.893"/>
        <path fill="#2489A6" d="M118.716 189.525c-.583 3.547-2.382 5.312-5.83 5.72-3.183.376-7.753-.439-13.975-2.495-3.253-1.074-5.756-2.455-7.24-3.99-2.187-2.264-2.178-4.831.028-7.427l.292.119c-2.177 2.561-2.196 5.084-.056 7.301 1.437 1.485 3.87 2.821 7.031 3.868 6.13 2.025 10.622 2.83 13.731 2.462 3.374-.399 5.136-2.14 5.712-5.643l.307.085"/>
        <path fill="#14236C" d="M106.631 195.33zm-8.227-2.36c-2.758-1.017-4.923-2.276-6.285-3.658 1.444 1.464 3.777 2.787 6.755 3.827-.159-.057-.315-.112-.47-.17zm16.812 2.053c1.75-.885 2.758-2.528 3.175-5.08-.417 2.552-1.425 4.195-3.175 5.08zm3.5-5.135l-.01.072c-.581 3.686-2.378 5.52-5.826 5.947-3.184.392-7.743-.456-13.94-2.593-3.252-1.12-5.779-2.576-7.266-4.184-2.187-2.365-2.181-5.04.014-7.739l.048-.058.578.243-.049.058c-2.138 2.628-2.162 5.213-.069 7.476 1.392 1.504 3.767 2.87 6.85 3.936 6.019 2.078 10.421 2.904 13.461 2.528 3.3-.409 5.025-2.195 5.592-5.793l.01-.072.607.18z"/>
        <path fill="#FFFFFE" d="M115.664 204.711c1.268-.134 2.313.047 2.325.403l.06 1.95c.011.356-1.016.758-2.283.892-1.268.133-2.314-.048-2.324-.405l-.061-1.947c-.012-.359 1.016-.76 2.283-.893"/>
        <path fill="#2489A6" d="M118.716 206.192c-.583 3.545-2.382 5.311-5.83 5.718-3.183.379-7.753-.438-13.975-2.493-3.253-1.075-5.756-2.456-7.24-3.989-2.187-2.265-2.178-4.832.028-7.428l.292.118c-2.177 2.561-2.196 5.085-.056 7.302 1.437 1.485 3.87 2.82 7.031 3.869 6.13 2.024 10.622 2.829 13.731 2.46 3.374-.398 5.136-2.14 5.712-5.642l.307.085"/>
        <path fill="#14236C" d="M106.631 211.996zm-8.227-2.36c-2.758-1.016-4.923-2.276-6.285-3.656 1.444 1.463 3.777 2.785 6.755 3.825a68.606 68.606 0 0 1-.47-.169zm16.812 2.053c1.75-.885 2.758-2.527 3.175-5.08-.417 2.553-1.425 4.195-3.175 5.08zm3.5-5.134l-.01.071c-.581 3.687-2.378 5.52-5.826 5.948-3.184.392-7.743-.456-13.94-2.594-3.252-1.119-5.779-2.575-7.266-4.184-2.187-2.363-2.181-5.04.014-7.738l.048-.058.578.243-.049.058c-2.138 2.628-2.162 5.213-.069 7.476 1.392 1.503 3.767 2.87 6.85 3.935 6.019 2.078 10.421 2.905 13.461 2.527 3.3-.407 5.025-2.195 5.592-5.792l.01-.071.607.18z"/>
        <path fill="#FFFFFE" d="M115.664 221.378c1.267-.136 2.313.047 2.324.405l.061 1.947c.01.358-1.016.759-2.284.893-1.267.134-2.312-.05-2.323-.406l-.061-1.948c-.011-.356 1.016-.757 2.283-.89"/>
        <path fill="#2489A6" d="M118.716 222.192c-.583 3.546-2.382 5.311-5.83 5.719-3.183.376-7.753-.438-13.975-2.495-3.253-1.073-5.756-2.454-7.24-3.989-2.187-2.264-2.178-4.83.028-7.427l.292.118c-2.177 2.562-2.196 5.085-.056 7.301 1.437 1.487 3.87 2.822 7.031 3.868 6.13 2.027 10.622 2.831 13.731 2.463 3.374-.4 5.136-2.14 5.712-5.644l.307.086"/>
        <path fill="#14236C" d="M106.631 227.996zm-8.227-2.36c-2.758-1.017-4.923-2.275-6.285-3.657 1.444 1.463 3.777 2.787 6.755 3.826-.159-.056-.315-.112-.47-.17zm16.812 2.053c1.75-.885 2.758-2.527 3.175-5.08-.417 2.553-1.425 4.195-3.175 5.08zm3.5-5.134l-.01.073c-.581 3.684-2.378 5.518-5.826 5.946-3.184.392-7.743-.456-13.94-2.592-3.252-1.121-5.779-2.578-7.266-4.186-2.187-2.364-2.181-5.04.014-7.738l.048-.058.578.243-.049.057c-2.138 2.628-2.162 5.214-.069 7.476 1.392 1.506 3.767 2.872 6.85 3.936 6.019 2.078 10.421 2.904 13.461 2.53 3.3-.41 5.025-2.196 5.592-5.794l.01-.07.607.177z"/>
        <path fill="#FFFFFE" d="M114.996 238.044c1.268-.134 2.314.049 2.325.406l.061 1.946c.01.358-1.016.758-2.284.894-1.267.133-2.313-.05-2.323-.405l-.061-1.949c-.012-.356 1.016-.758 2.282-.892"/>
        <path fill="#2489A6" d="M118.716 239.526c-.583 3.545-2.382 5.31-5.83 5.718-3.183.378-7.753-.438-13.975-2.493-3.253-1.075-5.756-2.456-7.24-3.99-2.187-2.263-2.178-4.832.028-7.428l.292.12c-2.177 2.56-2.196 5.085-.056 7.3 1.437 1.486 3.87 2.822 7.031 3.87 6.13 2.024 10.622 2.828 13.731 2.46 3.374-.397 5.136-2.14 5.712-5.642l.307.085"/>
        <path fill="#14236C" d="M106.631 245.33zm-8.227-2.36c-2.758-1.017-4.923-2.277-6.285-3.657 1.444 1.464 3.777 2.785 6.755 3.826-.159-.056-.315-.113-.47-.17zm16.812 2.053c1.75-.884 2.758-2.527 3.175-5.081-.417 2.554-1.425 4.197-3.175 5.081zm3.5-5.135l-.01.072c-.581 3.686-2.378 5.52-5.826 5.947-3.184.393-7.743-.455-13.94-2.594-3.252-1.119-5.779-2.575-7.266-4.185-2.187-2.362-2.181-5.039.014-7.737l.048-.058.578.243-.049.058c-2.138 2.628-2.162 5.214-.069 7.476 1.392 1.504 3.767 2.87 6.85 3.936 6.019 2.078 10.421 2.904 13.461 2.527 3.3-.407 5.025-2.194 5.592-5.792l.01-.072.607.18z"/>
        <path fill="#FFFFFE" d="M115.664 253.378c1.268-.135 2.313.047 2.325.404l.06 1.947c.011.359-1.016.761-2.283.894-1.268.133-2.314-.05-2.324-.406l-.061-1.947c-.012-.357 1.016-.758 2.283-.892"/>
        <path fill="#2489A6" d="M118.716 253.525c-.583 3.547-2.382 5.312-5.83 5.72-3.183.376-7.753-.438-13.975-2.495-3.253-1.074-5.756-2.455-7.24-3.99-2.187-2.264-2.178-4.83.028-7.427l.292.118c-2.177 2.562-2.196 5.086-.056 7.301 1.437 1.488 3.87 2.824 7.031 3.869 6.13 2.027 10.622 2.831 13.731 2.463 3.374-.4 5.136-2.141 5.712-5.644l.307.085"/>
        <path fill="#14236C" d="M106.631 259.33zm-8.227-2.361c-2.758-1.016-4.923-2.274-6.285-3.656 1.444 1.463 3.777 2.787 6.755 3.826-.159-.057-.315-.112-.47-.17zm16.812 2.054c1.75-.885 2.758-2.527 3.175-5.08-.417 2.553-1.425 4.195-3.175 5.08zm3.5-5.135l-.01.073c-.581 3.685-2.378 5.518-5.826 5.946-3.184.392-7.743-.456-13.94-2.592-3.252-1.12-5.779-2.577-7.266-4.185-2.187-2.365-2.181-5.04.014-7.738l.048-.059.578.243-.049.059c-2.138 2.627-2.162 5.212-.069 7.475 1.392 1.505 3.767 2.872 6.85 3.936 6.019 2.078 10.421 2.904 13.461 2.528 3.3-.409 5.025-2.194 5.592-5.792l.01-.072.607.178z"/>
        <path fill="#FFFFFE" d="M115.664 270.045c1.267-.135 2.313.047 2.324.405l.061 1.947c.01.358-1.016.759-2.284.892-1.267.135-2.312-.049-2.323-.405l-.061-1.948c-.011-.356 1.016-.757 2.283-.891"/>
        <path fill="#2489A6" d="M118.716 270.191c-.583 3.547-2.382 5.313-5.83 5.72-3.183.377-7.753-.438-13.975-2.494-3.253-1.074-5.756-2.455-7.24-3.99-2.187-2.264-2.178-4.831.028-7.427l.292.117c-2.177 2.563-2.196 5.086-.056 7.302 1.437 1.487 3.87 2.822 7.031 3.869 6.13 2.026 10.622 2.83 13.731 2.462 3.374-.4 5.136-2.14 5.712-5.644l.307.085"/>
        <path fill="#14236C" d="M106.631 275.997zm-8.227-2.36c-2.758-1.017-4.923-2.276-6.285-3.658 1.444 1.463 3.777 2.787 6.755 3.826-.159-.056-.315-.111-.47-.169zm16.812 2.052c1.75-.885 2.758-2.527 3.175-5.079-.417 2.552-1.425 4.194-3.175 5.079zm3.5-5.134l-.01.073c-.581 3.684-2.378 5.519-5.826 5.946-3.184.392-7.743-.456-13.94-2.592-3.252-1.12-5.779-2.577-7.266-4.185-2.187-2.365-2.181-5.04.014-7.739l.048-.058.578.243-.049.058c-2.138 2.627-2.162 5.213-.069 7.476 1.392 1.505 3.767 2.871 6.85 3.935 6.019 2.079 10.421 2.905 13.461 2.53 3.3-.41 5.025-2.196 5.592-5.794l.01-.07.607.177z"/>
        <path fill="#FFFFFE" d="M114.996 286.044c1.268-.134 2.314.05 2.325.405l.061 1.948c.01.357-1.016.758-2.284.894-1.267.131-2.313-.051-2.323-.406l-.061-1.949c-.012-.356 1.016-.758 2.282-.892"/>
        <path fill="#2489A6" d="M118.716 286.86c-.583 3.544-2.382 5.31-5.83 5.717-3.183.378-7.753-.438-13.975-2.493-3.253-1.074-5.756-2.455-7.24-3.989-2.187-2.264-2.178-4.833.028-7.428l.292.118c-2.177 2.56-2.196 5.086-.056 7.301 1.437 1.486 3.87 2.822 7.031 3.87 6.13 2.024 10.622 2.828 13.731 2.46 3.374-.397 5.136-2.14 5.712-5.642l.307.086"/>
        <path fill="#14236C" d="M106.631 292.664zm-8.227-2.361c-2.758-1.016-4.923-2.276-6.285-3.656 1.444 1.463 3.777 2.785 6.755 3.825a50.96 50.96 0 0 1-.47-.17zm16.812 2.053c1.75-.885 2.758-2.527 3.175-5.08-.417 2.553-1.425 4.195-3.175 5.08zm3.5-5.134l-.01.071c-.581 3.687-2.378 5.52-5.826 5.947-3.184.393-7.743-.455-13.94-2.593-3.252-1.12-5.779-2.575-7.266-4.184-2.187-2.363-2.181-5.04.014-7.738l.048-.058.578.242-.049.059c-2.138 2.628-2.162 5.213-.069 7.476 1.392 1.503 3.767 2.87 6.85 3.935 6.019 2.079 10.421 2.905 13.461 2.527 3.3-.407 5.025-2.194 5.592-5.792l.01-.071.607.179z"/>
        <path fill="#FFFFFE" d="M151.974 126.97c.198.003 0 .504 0 .504 8.906-3.6 70.302-5.984 72.257 7.492 3.153 21.744 6.34 36.896-10.275 43.421-10.678 4.195-34.149 3.085-49.26 1.685l-11.826-1.351a39.553 39.553 0 0 1-1.496-.24c-16.516-3.124-25.872-51.9.6-51.512l48.752 29.166"/>
        <text fill="#3F46AD" font-family="Noteworthy-Bold, Noteworthy" font-size="10.667" font-weight="bold">
            <tspan x="141.089" y="158.667">TESTIMONIALS</tspan>
        </text>
        <path fill="#FFFFFE" d="M224.358 242l18.41-4.465-12.589-32.868-9.42 2.286 3.6 35.047"/>
        <path fill="#F57C02" d="M251.773 348l18.34-4.347-26.346-106.986-18.34 4.35L251.773 348"/>
        <path fill="#000661" fill-opacity=".123" d="M214.756 198s-34.297-7.453-34.297-41.336c0-33.882 34.297-43.997 34.297-43.997-23.205 0-42.017 19.102-42.017 42.666 0 23.564 18.812 42.667 42.017 42.667z"/>
        <path fill="#FFB839" d="M174.781 157.537c-.476-22.44 17.33-41.011 39.775-41.493 22.445-.48 41.028 17.323 41.508 39.756.478 22.433-17.327 41.01-39.772 41.488-22.446.479-41.03-17.318-41.511-39.751m14.495 40.962c23.116 14.437 53.556 7.407 67.998-15.699 14.44-23.1 7.41-53.534-15.704-67.97-23.113-14.43-53.559-7.4-67.996 15.7-14.444 23.107-7.409 53.536 15.702 67.969"/>
        <path fill="#DE982F" d="M216.398 201.333c-7.907 0-15.909-2.169-23.108-6.718-20.47-12.937-26.693-40.203-13.908-60.91 7.151-11.576 18.731-18.648 31.13-20.372a43.496 43.496 0 0 0-12.627 6.66 40.159 40.159 0 0 0-7.5 4.554 40.872 40.872 0 0 0-13.34 18.006 41.09 41.09 0 0 0-2.612 15.36 41.47 41.47 0 0 0 .926 7.899 40.772 40.772 0 0 0 6.894 15.38c6.79 9.324 17.4 15.599 29.44 16.503a43.017 43.017 0 0 0 12.431 1.833c2.002 0 3.996-.139 5.972-.413a43.47 43.47 0 0 1-13.698 2.218"/>
        <path fill="#FFFFFE" d="M178.141 134.612c-12.722 20.351-6.504 47.248 13.86 59.961 9.942 6.205 21.7 8.136 33.104 5.44 11.235-2.656 20.788-9.508 26.904-19.29 6.164-9.857 8.116-21.523 5.5-32.848-2.619-11.327-9.494-20.955-19.36-27.115-9.94-6.203-21.694-8.136-33.101-5.438-11.235 2.655-20.79 9.507-26.907 19.29zm13.083 61.207c-21.05-13.144-27.478-40.95-14.327-61.983 6.323-10.114 16.2-17.196 27.812-19.943 11.791-2.786 23.943-.79 34.22 5.626 10.197 6.364 17.304 16.318 20.008 28.025 2.707 11.709.688 23.766-5.683 33.956-6.322 10.112-16.198 17.195-27.81 19.94h-.001c-11.79 2.786-23.943.791-34.219-5.621z"/>
        <path fill="#D56F09" d="M244.769 242.257L244.17 240l-18.076 4.411.6 2.256 18.075-4.41"/>
        <path fill="#F7D0C2" d="M254.762 223.95c2.647-2.96 1.252-4.618 1.404-4.617 1.455.044 2.444.677 6.13 1.195.265.06-.194 2.948-.421 4.497.016.197-.51.758-.102.277 1.7-1.891 2.34-.264 1.94.84-.571 1.594-1.123 1.979-1.193 2.15-.17.42.987-.501 1.477.008.04.043.676 4.416.676 4.416l1.438 4.728s-.929.925-5.357 1.211c-4.302.218-3.972-2.685-3.972-2.685s.324-4.272-.285-4.238c-3.199.176-2.437-.053-2.262-5.244.008-.245-2.107.404.527-2.539"/>
        <g transform="translate(256.774 229.333)">
            <mask id="l" fill="#fff">
                <use xlink:href="#k"/>
            </mask>
            <path fill="#DEAB8C" d="M-1.328 7.461h6.484v-3.49h-6.484z" mask="url(#l)"/>
            <path fill="#DEAA8B" d="M5.156 5.24L-.84 3.97l.005-.023 5.996 1.267" mask="url(#l)"/>
            <path fill="#DEAA8C" d="M5.161 5.215L-.835 3.948l.013-.058 5.997 1.267" mask="url(#l)"/>
            <path fill="#DEA98C" d="M5.175 5.157L-.822 3.89l.02-.094 5.997 1.267" mask="url(#l)"/>
            <path fill="#DEA88B" d="M5.195 5.063L-.802 3.796l.003-.012 5.996 1.268" mask="url(#l)"/>
            <path fill="#DEA88C" d="M5.197 5.052L-.799 3.784l.01-.047 5.997 1.268" mask="url(#l)"/>
            <path fill="#DEA88C" d="M5.208 5.005L-.789 3.737l.018-.082 5.997 1.268" mask="url(#l)"/>
            <path fill="#DDA78B" d="M5.226 4.923L-.771 3.655l.008-.035 5.997 1.268" mask="url(#l)"/>
            <path fill="#DEA78C" d="M5.234 4.888L-.763 3.62l.013-.059L5.246 4.83" mask="url(#l)"/>
            <path fill="#DEA68C" d="M5.246 4.83L-.75 3.56l.015-.07L5.262 4.76" mask="url(#l)"/>
            <path fill="#DEA68B" d="M5.262 4.759L-.735 3.49l.003-.011 5.997 1.267" mask="url(#l)"/>
            <path fill="#DEA68C" d="M5.265 4.747L-.732 3.48l.015-.07L5.28 4.676" mask="url(#l)"/>
            <path fill="#DDA58C" d="M5.28 4.677L-.717 3.409l.013-.059 5.997 1.268" mask="url(#l)"/>
            <path fill="#DDA48B" d="M5.293 4.618L-.704 3.35l.005-.023 5.997 1.268" mask="url(#l)"/>
            <path fill="#DDA48C" d="M5.298 4.595L-.7 3.327l.01-.047 5.997 1.268" mask="url(#l)"/>
            <path fill="#DDA38C" d="M5.308 4.548L-.688 3.28l.017-.082 5.997 1.268" mask="url(#l)"/>
            <path fill="#DDA38C" d="M5.326 4.466L-.671 3.198l.019-.082 5.996 1.268" mask="url(#l)"/>
            <path fill="#DDA28B" d="M5.344 4.384L-.652 3.116l.01-.046 5.996 1.267" mask="url(#l)"/>
            <path fill="#DEA28C" d="M5.354 4.337L-.642 3.07l.007-.036 5.997 1.268" mask="url(#l)"/>
            <path fill="#DEA28C" d="M5.362 4.302L-.635 3.034l.018-.081L5.38 4.22" mask="url(#l)"/>
            <path fill="#DEA18B" d="M5.38 4.22L-.617 2.953l.008-.036 5.997 1.268" mask="url(#l)"/>
            <path fill="#DDA18C" d="M5.388 4.185L-.61 2.917l.005-.023L5.393 4.16" mask="url(#l)"/>
            <path fill="#DDA08B" d="M5.393 4.161L-.604 2.894l.02-.094 5.997 1.268" mask="url(#l)"/>
            <path fill="#DD9F8B" d="M5.413 4.067L-.583 2.8l.007-.035 5.997 1.267" mask="url(#l)"/>
            <path fill="#DD9F8B" d="M5.421 4.032L-.576 2.765l.006-.023 5.996 1.267" mask="url(#l)"/>
            <path fill="#DD9F8B" d="M5.426 4.01L-.57 2.741l.015-.07 5.996 1.267" mask="url(#l)"/>
            <path fill="#DD9E8B" d="M5.441 3.939L-.555 2.67l.816-3.72L6.258.22" mask="url(#l)"/>
        </g>
        <path fill="#F57C02" d="M267.631 219.665c-2.102-1.691-2.889-.286-6.244-2.522-1.663-1.113-2.896-1.329-3.833-.98a2.781 2.781 0 0 0-1.98-.83c-1.548 0-2.802 1.265-2.802 2.824a2.808 2.808 0 0 0 2.802 2.818c.277 0 .537-.052.79-.128 1.3-.075 3.249-.2 5.78.311.088.695-1.152 3.494-1.39 5.142.019.208.187.929.613.42 1.769-2.015 2.714-.847 2.298.326-.594 1.695-1.512 1.475-1.516 1.862-.007.67.49 1.318.999 1.814.884.864 1.188.923 1.249-.546.088-2.097 7.065-7.438 3.234-10.511"/>
        <path fill="#FFFFFE" d="M254.16 228.176l-.054.49c.752.005 2.668-.666 2.668-.666l-2.613.176"/>
        <path fill="#F57C02" d="M255.828 346l-2.415.491-1.595-.003c-1.109.804-2.791 1.021-4.105 1.323-1.296.298-1.87.325-3.344.685-.285.07-.334.317-.184.55.613.936 2.164.92 3.105.951.931.027 2.847-.155 3.777-.205 2.099-.116 3.163-.56 3.437-.143.183.279 2.37.074 2.266-.43-.26-1.288-.855-2.565-.942-3.219M283.351 345.39l-2.593-.052-1.597-.005c-1.106.913-2.788 1.164-4.105 1.507-1.295.335-1.868.37-3.343.78-.285.08-.334.362-.182.626.615 1.067 2.16 1.049 3.103 1.084.932.031 2.847-.176 3.778-.233 2.1-.133 3.163-.64 3.437-.168.185.317 2.367.088 2.266-.485-.261-1.467-.679-2.304-.764-3.053"/>
        <path fill="#22855A" d="M260.373 298.244c-1.115-2.592-4.966-20.661-5.6-22.234l14.425-.01c4.673 19.462 12.912 58.753 16.921 69.927-1.472 1.104-4.294.827-8.776.113-3.344-5.852-13.981-40.83-16.97-47.796z"/>
        <path fill="#0E1220" d="M264.11 310.667c-1.314-4.612-2.486-8.664-3.334-11.333.848 2.67 2.02 6.719 3.334 11.333"/>
        <path fill="#207F55" d="M264.548 310.667c-1.486-4.659-2.813-8.746-3.772-11.443 3.057-4.262 5.799-4.079 10.69-9.224 3.268 15.784-6.884 20.65-6.918 20.667"/>
        <path fill="#289163" d="M258.705 345.266c1.576-3.647 4.104-20.558 6.377-32.178.981-5.03 1.926-7.259 2.716-8.802 7.64-14.911 3.409-21.47.415-29.62l-15.188.328c-1.172 22.32-.155 59.79-2.92 71.242 1.556.91 4.29.278 8.6-.97"/>
        <path fill="#B9CEF2" d="M269.17 246.414c0-2.657-.49-4.553-2.753-5.957-.111-.072-.793 1.2-.793 1.2s-5.696-2.234-6.236-2.469c-.65-.288-.22-.035-.844-.386-2.082-1.17-7.106 5.494-7.106 10.749 0 0 2.701 15.206 1.748 23.246-.56 4.748 14.842 5.783 15.984 3.038.62-1.486 0-29.421 0-29.421"/>
        <path fill="#CDE0FF" d="M257.596 236.892c.138-.072.167.212 1.156.51 1.905.574 5.735-.352 7.83-1.386.613-.298 10.814 3.518 10.171 11.583 0 0-6.06 13.72-4.885 21.829.692 4.785-18.28 5.83-19.689 3.06-.763-1.5-.74-30.12-.74-30.12 0-2.678 3.372-4.065 6.157-5.476z"/>
        <path fill="#EEA530" d="M251.464 251.333c-.012-1.698-.02-3.296-.026-4.666h.001c.005 1.37.013 2.968.025 4.666"/>
        <path fill="#E46B2A" d="M251.472 256a1180.342 1180.342 0 0 0 0-.001V256"/>
        <path fill="#CDE0FF" d="M251.508 256.667a1560.94 1560.94 0 0 1-.07-10h4.669c-1.829 3.914-2.577 5.246-4.6 10"/>
        <path fill="#F7D0C2" d="M225.724 228h-3.13c-.926-3.488-3.239-11.01-2.27-11.004.193 0 .37-.034.412-.148.086-.232.561-.185.734 0 .176.184.5-.316.649-.14.346.413.493-.38.771.146.274.516.517 1.649.724 2.775.086.466.941 2.437 1.61 1.368.278-.445.055-1.467.52-1.65.368-.148.357-.076.347 1.622-.008 1.58-.965 2.538-.367 7.031"/>
        <path fill="#FFFFFE" d="M222.76 216.667c.186 1.12.367 2.246.667 3.333M222.093 216.667c.186 1.12.368 2.246.667 3.333M220.759 216.667c.187 1.12.368 2.246.667 3.333"/>
        <path fill="#CDE0FF" d="M225.988 226c2.49 7.489 7.079 9.344 10.16 13.684.679.956 15.63-4.429 22.694-2.029 3.425 1.419-.45 12.532-7.375 12.235-7.443.41-17.45-.233-20.399-3.53-4.388-3.954-9.082-16.004-8.973-20.09l3.893-.27"/>
        <path fill="#207F55" d="M74.02 194.106c.746 3.783 4.277 9.379 1.824 12.542-2.205 2.847-8.932 2.79-10.475 6.215-2.243 4.98 4.57 4.81.806 9.38-1.55 1.885-9.486 8.822-11.638 9.924-1.228.63-3.971 4.359-7.285 2.78-7.285-3.475 7.538-52.148 24.76-56.116 7.895-1.818 1.355 11.972 2.008 15.275"/>
        <path fill="#3FB280" d="M46.645 234l-.626-.14c5.895-27.252 13.226-37.325 20.989-47.989.611-.84 1.224-1.684 1.838-2.538l.516.387c-.615.855-1.229 1.698-1.841 2.541C59.8 196.866 52.51 206.885 46.645 234"/>
        <path fill="#3FB280" d="M67.344 198.015c-4.457-.11-6.584 1.693-9.528 4.188-.432.365-.877.743-1.35 1.13l-.443-.52c.469-.384.913-.758 1.34-1.122 2.947-2.498 5.276-4.47 9.998-4.353l-.017.677M51.771 214l-.416-.477c.482-.41.906-.79 1.28-1.126 1.717-1.548 2.754-2.48 5.94-3.064l.116.62c-3.008.55-3.937 1.389-5.625 2.91-.378.338-.805.723-1.295 1.137M60.682 195.672l-.657.328c.823-1.76 1.125-4.388 1.375-6.305.16-1.221.326-2.48.631-3.695l.662.186c-.297 1.169-.459 2.407-.615 3.605-.258 1.976-.524 4.017-1.396 5.881"/>
        <path fill="#799921" d="M48.63 257.333c-.636-5.428-.425-9.933-.255-13.555.197-4.235.34-7.298-1.022-9.062l1.15-.716c1.629 2.112 1.477 5.35 1.269 9.832-.168 3.578-.377 8.034.249 13.37l-1.39.131"/>
        <path fill="#289163" d="M55.967 179.953c2.658 3.516 4.791 7.561 3.818 12.04-.876 4.028-7.109 13.792-7.008 18.084.147 6.244 7.228 4.834 5.593 11.417-.675 2.71-2.024 5.132-3.711 7.34-.963 1.262-1.959 6.47-6.188 6.499-9.3.067-9.262-6.428-11.957-9.332-5.543-5.973-10.304-13.956-7.832-20.414 1.012-2.642 5.456-2.222 6.336-4.903.808-2.455-3.111-8.947-3.241-11.944-.272-6.225 5.773-4.16 5.567-7.406-.444-6.947 7.686-19.585 12.28-19.33 9.329.517 4.02 14.875 6.343 17.949"/>
        <path fill="#F9F9F9" d="M47.353 234.667l-.63-.186c-6.331-31-3.925-44.725-1.463-59.613.194-1.173.388-2.347.579-3.535l.555.12c-.19 1.188-.386 2.364-.58 3.539-2.45 14.817-4.764 28.811 1.54 59.675"/>
        <path fill="#F9F9F9" d="M43.28 197.333l-.596-.277c.27-.62.522-1.218.766-1.795 1.67-3.97 2.99-7.105 7.634-9.261l.27.614c-4.414 2.049-5.625 4.928-7.302 8.914a128.3 128.3 0 0 1-.772 1.805M43.972 212l-.62-.274c.306-.703.564-1.347.792-1.915 1.04-2.6 1.667-4.17 4.81-6.478l.4.547c-2.987 2.194-3.552 3.61-4.584 6.182a64.553 64.553 0 0 1-.798 1.938M43.351 185.949l-.439.718c.014-1.932-.721-4.53-1.282-6.342-.356-1.148-.724-2.335-.946-3.543l.583-.115c.213 1.17.575 2.338.927 3.47.576 1.857 1.172 3.78 1.157 5.812"/>
        <path fill="#ADC6F0" d="M62.62 300c1.363-29.543 8.251-49.55 8.743-55.995H27.427l-.082-.005c.493 6.445 4.15 19.891 8.74 56H62.62"/>
        <path fill="#CDE0FF" d="M72.697 244.667H25.182s-1.136-4.625 0-4.749c25.953-2.816 47.515 0 47.515 0v4.749"/>
        <path fill="#000" d="M179.408 310.995c0 3.503-2.922 6.338-6.531 6.338h-30.956c-3.61 0-6.531-2.835-6.531-6.338 0-3.494 2.922-6.328 6.531-6.328h30.956c3.609 0 6.531 2.834 6.531 6.328"/>
        <path fill="#F57C02" d="M161.61 322.584l3.295-.719 2.032-.405c1.643.763 4.126-.472 5.89-.412 1.735.057 1.11-.464 3.097-.37.381.02 1.603 1.84 1.474 2.176-.515 1.371-2.49 1.746-3.684 2.02-1.182.27-3.675.518-4.873.689-2.714.38-4.197.068-4.426.68-.157.407-2.995.696-3.011.018-.036-1.739.285-2.805.205-3.677M187.298 306.134c1.819-3.595 4.62-1.938-2.411-12.305-10.618-15.646-9.168-19.572-22.382-20.998-.862-.094-3.135.11-5.22.314-2.032.199-3.887.397-4.09.321-.493-.198-.17-.027-.648-.264-1.591-.79-6.253-1.402-10.597 3.507 0 0-15.92 21.954-14.47 26.786.331 1.117 1.571 3.281 18.185 5.734.803.119 16.54 1.674 30.757 0 6.715-.79 9.528-.437 10.876-3.095z"/>
        <path fill="#5FA5B2" d="M144.727 299.333l-.245-.089c-3.37-1.724-4.514-2.891-9.53-5.34l-.23-.57c3.5 1.534 9.728 5.789 10.005 6M170.738 301.333c.279-.214 6.502-4.466 10.004-6l-.234.57c-5.011 2.45-6.153 3.616-9.524 5.332l-.246.098"/>
        <path fill="#F7D0C2" d="M153.483 270.873c.229.838-.085 4.846-.085 4.846-.052 3.588 2.303 5.614 5.043 5.614a4.965 4.965 0 0 0 4.96-4.967l-1.45-6.945s-9.034-.622-8.468 1.452"/>
        <path fill="#151114" d="M165.423 328.667l-39.637-14.219c-2.686-1.222-3.823-4.295-2.541-6.857 1.284-2.56 4.5-3.645 7.183-2.42l39.643 14.217-4.648 9.279"/>
        <path fill="#E4E2DC" d="M136.79 308a1.66 1.66 0 0 0-.066.462c0 .851.618 1.538 1.377 1.538h37.928c.761 0 1.378-.687 1.378-1.538 0-.162-.022-.313-.064-.462H136.79"/>
        <path fill="#FFFFFE" d="M173.16 288.667h-30.852c-.87 0-1.583.687-1.583 1.52v16.29c0 .838.712 1.523 1.583 1.523h30.852c.87 0 1.58-.685 1.58-1.523v-16.29c0-.833-.71-1.52-1.58-1.52"/>
        <path fill="#F57C02" d="M156.521 322.276l-3.29-.773-2.031-.437c-1.643.819-6.59-.495-8.578-.394-.383.024-2.013 1.53-1.89 1.894.515 1.475 2.493 1.874 3.69 2.172 1.178.291 3.671.558 4.873.741 2.712.41 4.195.077 4.426.732.155.438 2.998.749 3.008.017.04-1.87-.284-3.013-.208-3.952"/>
        <path fill="#393636" d="M152.707 329.333l39.64-14.221c2.685-1.224 3.826-4.289 2.538-6.852-1.28-2.562-4.494-3.647-7.181-2.424l-39.642 14.222 4.645 9.275"/>
        <path fill="#F7D0C2" d="M150.334 263.807c-.208 6.147-1.104 6.424 2.658 6.21.717-.043.333 5.018.333 5.018s-.025.29.05.69h8.908l1.119.275s-1.547-9.996-1.59-10.044c-.577-.606-1.939.482-1.741-.015.084-.2.73-.657 1.41-2.543.465-1.31-.287-3.236-2.285-.996-.05.062-.09.103-.115.142.09-.127.241-.355.23-.468.27-1.835.9-5.407.59-5.48-4.335-.61-5.586-1.214-7.301-1.263-.18 0 1.467 1.962-1.65 5.469-3.095 3.483-.61 2.715-.616 3.005"/>
        <g transform="translate(153.23 267.167)">
            <use fill="#C25F37" xlink:href="#m"/>
        </g>
        <path fill="#0A0B09" d="M164.666 253.902c-2.168-1.836-3.01.237-5.62-1.347-2.326-1.409-4.023.312-5.454.282-4.6-.094-4.762 3.058-.142 3.755 1.447-.083 3.212 1.454 4.775.862.097.76.382 3.279.114 5.07.023.224.21 1.01.688.453 1.968-2.189 3.023-.919 2.564.36-.67 1.843-1.688 1.605-1.691 2.025-.007.733.543 1.434 1.11 1.974.988.936 1.324 1.006 1.391-.599.1-2.276 6.397-9.336 2.265-12.835"/>
        <path fill="#FFFFFE" d="M150.116 265.51l-.053.49c.748.005 2.667-.667 2.667-.667l-2.614.178"/>
    </g>
</svg>
