<svg xmlns="http://www.w3.org/2000/svg" xmlns:xlink="http://www.w3.org/1999/xlink"><defs><path id="a" d="M23.116 19.074H10v-1.468h13.264l-5.568-5.568L18.734 11 26 18.266l-1.038 1.038-6.228 6.228-1.038-1.038 5.42-5.42z"/><path id="a" d="M11.75 10.69l5.47-5.47a.75.75 0 0 1 1.06 1.06l-5.47 5.47 5.47 5.47a.75.75 0 0 1-1.06 1.06l-5.47-5.47-5.47 5.47a.75.75 0 0 1-1.06-1.06l5.47-5.47-5.47-5.47a.75.75 0 0 1 1.06-1.06l5.47 5.47z"/><path id="a" d="M.005 0H36v44H.005z"/><path id="a" d="M2.72 13.697a1.576 1.576 0 0 1-.548-1.75l.865-2.764a.438.438 0 0 0-.15-.481L.622 6.994A1.562 1.562 0 0 1 0 5.809v-.146c.006-.143.031-.287.076-.43.207-.66.77-1.087 1.433-1.087h2.798c.186 0 .34-.11.394-.282l.864-2.78C5.771.423 6.334 0 6.999 0c.666 0 1.228.425 1.434 1.082l.865 2.783c.053.17.208.281.393.281h2.798c.664 0 1.227.427 1.433 1.087.207.662-.007 1.354-.547 1.76l-1.543 1.165c-.244.185-.237.19-.696.544a.502.502 0 0 0-.15.536c.115.342.155.518.248.816l.592 1.892a1.576 1.576 0 0 1-.548 1.751 1.473 1.473 0 0 1-.817.303h-.138a1.474 1.474 0 0 1-.817-.303l-2.264-1.708a.4.4 0 0 0-.486 0l-2.264 1.708a1.473 1.473 0 0 1-.817.303h-.138a1.473 1.473 0 0 1-.817-.303z"/></defs><symbol id="icon-1"><path fill="#393636" fill-rule="evenodd" d="M1.22 22.62c5.865 0 10.931-3.394 13.26-8.275a8.011 8.011 0 0 1-4.118 1.13c-4.369 0-7.928-3.471-7.928-7.738S5.993-.001 10.362-.001c4.368 0 7.921 3.471 7.921 7.738 0 .152-.005.302-.014.452.005.047.014.093.014.141 0 9.192-7.654 16.667-17.063 16.667-.678 0-1.22-.528-1.22-1.184 0-.665.542-1.193 1.22-1.193zm20.718 0c5.867 0 10.937-3.396 13.266-8.28a8.004 8.004 0 0 1-4.125 1.135c-4.368 0-7.921-3.471-7.921-7.738s3.553-7.738 7.921-7.738S39 3.47 39 7.737c0 .152-.005.302-.014.451.005.047.014.094.014.142 0 9.192-7.653 16.667-17.062 16.667-.673 0-1.221-.528-1.221-1.184 0-.665.548-1.193 1.221-1.193z"/></symbol><symbol id="icon-2"><path fill="#393636" fill-rule="evenodd" d="M37.78 2.38c-5.865 0-10.931 3.394-13.26 8.275a8.011 8.011 0 0 1 4.118-1.13c4.369 0 7.928 3.471 7.928 7.738s-3.559 7.738-7.928 7.738c-4.368 0-7.921-3.471-7.921-7.738 0-.152.005-.302.014-.452-.005-.047-.014-.093-.014-.141C20.717 7.478 28.371.003 37.78.003c.678 0 1.22.528 1.22 1.184 0 .665-.542 1.193-1.22 1.193zm-20.718 0c-5.867 0-10.937 3.396-13.266 8.28a8.004 8.004 0 0 1 4.125-1.135c4.368 0 7.921 3.471 7.921 7.738s-3.553 7.738-7.921 7.738S0 21.53 0 17.263c0-.152.005-.302.014-.451C.009 16.765 0 16.718 0 16.67 0 7.478 7.653.003 17.062.003c.673 0 1.221.528 1.221 1.184 0 .665-.548 1.193-1.221 1.193z"/></symbol><symbol id="icon-arrow"><g fill="#FFF" fill-rule="evenodd" transform="translate(-10 -11)"><use xlink:href="#a"/><use xlink:href="#a"/><use xlink:href="#a"/></g></symbol><symbol id="icon-bc"><path d="M25 12.5C25 19.39 19.39 25 12.5 25 5.606 25 0 19.39 0 12.5 0 5.606 5.606 0 12.5 0 19.39 0 25 5.606 25 12.5zm-1.252 0c0-6.204-5.044-11.248-11.248-11.248S1.252 6.296 1.252 12.5 6.296 23.748 12.5 23.748 23.748 18.704 23.748 12.5zm-10.195.512c-.208-.078-.528-.121-.955-.121h-.977v1.636c.003.232.013.365.027.405.02.05.047.086.089.104.043.019.156.03.339.03h.549c.32 0 .586-.03.794-.091.213-.058.39-.18.54-.37a1.06 1.06 0 0 0 .22-.677.997.997 0 0 0-.156-.567.952.952 0 0 0-.47-.349zm7.968-.512a9.02 9.02 0 0 1-9.021 9.021A9.02 9.02 0 0 1 3.479 12.5 9.02 9.02 0 0 1 12.5 3.479a9.02 9.02 0 0 1 9.021 9.021zm-5.384 1.63c0-.333-.078-.638-.237-.91a1.7 1.7 0 0 0-.641-.638 3.353 3.353 0 0 0-.812-.295c.326-.114.592-.254.794-.428.201-.17.354-.366.46-.589a1.643 1.643 0 0 0-.14-1.654 1.912 1.912 0 0 0-.866-.659 2.733 2.733 0 0 0-.508-.14V7.482H12.91v1.242h-.82V7.483h-1.28v1.242H8.863v1.044h.296c.198 0 .332.018.402.054a.305.305 0 0 1 .15.147c.03.061.045.204.045.428v4.207c0 .22-.015.364-.045.425a.282.282 0 0 1-.15.147c-.07.033-.204.051-.402.051h-.296v1.044h1.946v1.242h1.28v-1.242h.823v1.242h1.275v-1.35c.218-.041.404-.094.565-.158.44-.176.782-.433 1.025-.768a1.85 1.85 0 0 0 .36-1.108zm-2.728-2.457a.915.915 0 0 0 .468-.324.85.85 0 0 0 .155-.506.87.87 0 0 0-.147-.51.819.819 0 0 0-.43-.299c-.19-.06-.525-.089-1.007-.089h-.827v1.838h.827c.433 0 .754-.037.961-.11z"/></symbol><symbol id="icon-cross-small"><use fill="#979797" transform="translate(-5 -5)" xlink:href="#a"/></symbol><symbol id="icon-discord"><ellipse cx="11.364" cy="10.542" rx="1.364" ry="1.375"/><ellipse cx="7.727" cy="10.542" rx="1.364" ry="1.375"/><path d="M17.593 0H2.346C1.049 0 0 1.042 0 2.267V17.16c0 1.287 1.05 2.267 2.346 2.267h12.963l-.618-2.022 1.482 1.287 1.358 1.225L20 22V2.267C19.938 1.042 18.889 0 17.593 0zM13.21 14.401s-.432-.49-.74-.92c1.48-.428 2.036-1.286 2.036-1.286-.494.306-.926.49-1.296.674-.556.245-1.111.368-1.667.49-1.11.184-2.099.123-2.963 0a7.785 7.785 0 0 1-1.666-.49 12.145 12.145 0 0 0-.865-.368c-.061 0-.061-.06-.123-.06h-.062a3.212 3.212 0 0 0-.308-.185s.555.858 1.975 1.287c-.37.43-.74.92-.74.92-2.532-.062-3.458-1.655-3.458-1.655C3.333 9.253 5 6.373 5 6.373 6.667 5.148 8.21 5.21 8.21 5.21l.123.122c-2.037.49-2.963 1.41-2.963 1.41s.247-.123.68-.306c1.234-.49 2.16-.675 2.592-.675h.185c.68-.06 1.482-.122 2.284 0 1.111.123 2.222.43 3.457 1.042 0 0-.926-.858-2.84-1.41l.186-.183s1.543-.061 3.21 1.164c0 0 1.666 2.88 1.666 6.435-.062-.061-1.05 1.532-3.58 1.593z"/></symbol><symbol id="icon-fb"><path d="M7.405 22.373v-10.03h3.73l.14-2.98h-3.87V6.41c0-1.34.486-1.912 1.826-1.912.585 0 1.24.003 1.966.008l.068-2.768a22.084 22.084 0 0 0-2.185-.11c-3.17 0-4.804 1.823-4.804 4.333v3.401h-2.63v2.98h2.63v10.03h3.13zM9.051 24h-6.42V13.969H0V7.735h2.63V5.961C2.63 2.593 4.955 0 9.08 0c1.013 0 2.057.07 3.133.21l.733.094-.143 5.844-.811-.008c-1.05-.01-1.97-.014-2.761-.014-.236 0-.271.009-.204-.07.041-.05.024.054.024.354v1.326H13l-.293 6.234H9.05V24z"/></symbol><symbol id="icon-instr-1"><g fill="none" fill-rule="evenodd"><circle cx="38" cy="38" r="38" fill="#FFF"/><g fill="#2879FF"><path d="M48.074 14H27.922a3.53 3.53 0 0 0-3.524 3.523v40.954A3.53 3.53 0 0 0 27.922 62h20.152a3.527 3.527 0 0 0 3.524-3.523V17.523A3.527 3.527 0 0 0 48.074 14zM26 50.801h24V20.398H26v30.403zm1.922-35.199h20.152c1.063 0 1.926.863 1.926 1.921v1.278H26v-1.278c0-1.058.863-1.921 1.922-1.921zm20.152 44.796H27.922A1.925 1.925 0 0 1 26 58.477v-6.079h24v6.079a1.926 1.926 0 0 1-1.926 1.921z"/><path d="M38 53.199a3.203 3.203 0 0 0-3.199 3.199A3.204 3.204 0 0 0 38 59.602a3.204 3.204 0 0 0 3.199-3.204A3.203 3.203 0 0 0 38 53.199zM38 58a1.604 1.604 0 0 1-1.602-1.602A1.6 1.6 0 1 1 38 58zm-3.199-40H38a.802.802 0 0 0 0-1.602h-3.199a.8.8 0 0 0-.801.801c0 .442.355.801.801.801z"/></g></g></symbol><symbol id="icon-instr-2"><g fill="none" fill-rule="evenodd"><circle cx="38" cy="38" r="38" fill="#FFF"/><path fill="#2879FF" d="M55.043 28.171l-3.081 3.082-.001.001v.002L30.852 52.363c-.69.69-7.054 2.637-8.62 2.637-.258 0-.635-.033-.917-.313-.329-.33-.701-.703.582-5.019.276-.927 1.216-3.995 1.74-4.52l24.19-24.191a3.243 3.243 0 0 1 2.31-.957c.871 0 1.69.34 2.307.957l2.598 2.597c.617.616.957 1.437.957 2.309a3.24 3.24 0 0 1-.957 2.308zM22.67 53.33c.996-.14 2.809-.652 4.36-1.153l-3.21-3.212c-.505 1.587-1.01 3.432-1.15 4.365zm1.737-6.085l4.342 4.342c.479-.178.839-.328.989-.417l20.491-20.493-4.906-4.906-20.491 20.493c-.105.17-.254.524-.425.98zm29.482-22.537l-2.598-2.597c-.617-.617-1.691-.616-2.308 0l-2.506 2.505 4.906 4.907 2.506-2.506c.309-.308.479-.718.479-1.154 0-.436-.17-.846-.479-1.155zm-1.328 8.049a.815.815 0 1 1 1.154 1.154l-7.163 7.163a.814.814 0 0 1-1.154 0 .815.815 0 0 1 0-1.154l7.163-7.163z"/></g></symbol><symbol id="icon-instr-3"><g fill="none" fill-rule="evenodd"><circle cx="38" cy="38" r="38" fill="#FFF"/><g transform="translate(20 16)"><mask id="b" fill="#fff"><use xlink:href="#a"/></mask><path fill="#2879FF" d="M18 15.899c2.034 0 3.834 1.026 4.927 2.592l-4.664 4.72-1.78-1.801a.842.842 0 0 0-1.2 0l-2.862 2.897A6.13 6.13 0 0 1 11.972 22c0-3.364 2.704-6.101 6.028-6.101zM18 28.1c-1.89 0-3.58-.886-4.686-2.268l2.57-2.6 1.78 1.8a.842.842 0 0 0 1.2 0l4.866-4.925A6.14 6.14 0 0 1 24.028 22c0 3.364-2.704 6.101-6.028 6.101zm-6.473-1.836c1.38 2.138 3.766 3.555 6.473 3.555 4.26 0 7.726-3.508 7.726-7.82S22.26 14.18 18 14.18s-7.726 3.508-7.726 7.82a7.84 7.84 0 0 0 1.173 4.137c.022.045.05.087.08.128z" mask="url(#b)"/><path fill="#2879FF" d="M34.302 34.203h-3.373c.095-.269.146-.558.146-.86v-10.01a6.554 6.554 0 0 1 3.227 5.658v5.212zm-15.95 7.38l-.352.351-.351-.35a9.114 9.114 0 0 1-2.62-5.662h5.942a9.115 9.115 0 0 1-2.62 5.662zM1.697 28.992a6.554 6.554 0 0 1 3.227-5.658v10.01c0 .302.051.591.146.86H1.698v-5.212zm4.925-6.769c0-3.111.607-6.144 1.734-8.945h3.845c.468 0 .849-.384.849-.859s-.38-.86-.85-.86H9.129c.299-.6.622-1.188.97-1.761h15.804a23.986 23.986 0 0 1 3.475 12.425v11.122c0 .474-.38.86-.849.86H7.472a.855.855 0 0 1-.85-.86V22.222zM18 1.856a23.54 23.54 0 0 1 6.756 6.222H11.244A23.54 23.54 0 0 1 18 1.856zm13.062 19.551a25.755 25.755 0 0 0-3.378-11.96A25.365 25.365 0 0 0 18.422.114a.84.84 0 0 0-.844 0 25.367 25.367 0 0 0-9.262 9.333 25.755 25.755 0 0 0-3.378 11.96C1.96 22.7 0 25.675 0 28.991v6.072c0 .474.38.859.85.859h12.475a10.855 10.855 0 0 0 3.132 6.886l.947.945a.841.841 0 0 0 1.192 0l.947-.945a10.855 10.855 0 0 0 3.132-6.886h2.627v4.435c0 .475.38.86.849.86s.849-.385.849-.86v-4.435h8.15c.47 0 .85-.385.85-.86v-6.07c0-3.317-1.961-6.292-4.938-7.585z" mask="url(#b)"/></g><path fill="#2879FF" d="M35.283 29.277a.85.85 0 0 0 .6-.251.871.871 0 0 0 .25-.608.871.871 0 0 0-.25-.608.85.85 0 0 0-.6-.251.85.85 0 0 0-.6.251.871.871 0 0 0-.249.608c0 .226.09.448.249.608a.85.85 0 0 0 .6.251M29.85 54.22a.854.854 0 0 0-.85.86v2.648c0 .474.38.859.85.859a.854.854 0 0 0 .848-.86V55.08c0-.474-.38-.86-.849-.86m16.301 4.061a.85.85 0 0 0-.6.252.871.871 0 0 0-.248.608c0 .226.09.447.249.607a.85.85 0 0 0 .6.252.85.85 0 0 0 .6-.252.871.871 0 0 0 .249-.607.871.871 0 0 0-.249-.608.85.85 0 0 0-.6-.252"/></g></symbol><symbol id="icon-star"><use fill="#FFB839" fill-rule="evenodd" xlink:href="#a"/></symbol><symbol id="icon-tg"><path d="M17.71 20a.857.857 0 0 1-.488-.153l-5.532-3.813-2.967 2.17a.86.86 0 0 1-.803.115.88.88 0 0 1-.547-.608l-1.49-5.738L.56 9.905a.885.885 0 0 1-.56-.82.885.885 0 0 1 .549-.83L20.789.07a.848.848 0 0 1 .392-.068.86.86 0 0 1 .604.3.888.888 0 0 1 .197.76l-3.416 18.219a.881.881 0 0 1-.522.652.853.853 0 0 1-.334.067zm-5.534-5.77l4.927 3.397L19.762 3.45l-9.602 9.39 1.993 1.373.023.016zm-4.102-.756l.66 2.541 1.421-1.04-1.861-1.283a.856.856 0 0 1-.22-.218zM3.267 9.061l3.655 1.42a.88.88 0 0 1 .531.601l.463 1.786a.892.892 0 0 1 .263-.546l9.148-8.946L3.267 9.06z"/></symbol><symbol id="icon-vk"><path d="M11.487 3.722c.153 1.079.172 2.225.06 3.599-.035.428-.106.773-.227 1.08a1.471 1.471 0 0 1-.142.275l-.374.56-.617-.264a1.4 1.4 0 0 1-.27-.157c-.349-.255-.584-.542-.93-1.06l-.06-.09c-.965-1.45-1.774-3.046-2.474-4.876-.165-.43-.407-.617-.736-.622a93.062 93.062 0 0 0-3.6.001c-.288.006-.407.063-.458.148-.06.1-.057.279.074.589 1.586 3.753 3.02 6.47 4.649 8.82 1.11 1.6 2.21 2.694 3.467 3.46 1.3.791 2.769 1.179 4.495 1.179.2 0 .402-.006.61-.016.73-.035.87-.18.903-.961.039-.845.142-1.399.415-1.93.161-.312.362-.544.708-.637.354-.094.654.017.952.223.257.177.465.383.717.675l.117.137.119.14.239.284c.487.58.71.84.993 1.147.638.692 1.322.987 2.15.922l3.655.001c.135-.012.252-.094.336-.253.132-.248.13-.589-.024-.905-.206-.424-.468-.813-.86-1.317-.45-.575-.858-1.01-1.785-1.945a123.028 123.028 0 0 1-.566-.573l-.11-.115c-.418-.434-.643-.771-.68-1.177-.04-.409.121-.78.454-1.273l.05-.074c.196-.292.406-.594.665-.96l.378-.532c.48-.674.698-.982.956-1.363l.071-.105c.891-1.312 1.239-1.924 1.492-2.77.087-.294.093-.485.029-.597-.057-.1-.195-.168-.462-.217a1.629 1.629 0 0 0-.298-.017l-4.021-.004c-.34-.006-.518.122-.662.51a25.038 25.038 0 0 1-.768 1.882c-.771 1.672-1.46 2.852-2.386 3.9l-.045.05-.091.102-.037.04c-.125.131-.21.208-.353.28l-.42.213-.393-.262c-.392-.262-.604-.93-.592-1.413l-.004-4.908c-.083-.638-.187-.809-.64-.91h-4.134c-.398 0-.607.127-.9.491.774.194 1.248.75 1.365 1.595zM9.01 16.585c-1.465-.892-2.725-2.145-3.958-3.923-1.7-2.451-3.185-5.265-4.812-9.116-.319-.754-.33-1.472.028-2.074C.636.856 1.282.547 2.085.532A94.61 94.61 0 0 1 5.743.531c1.02.015 1.83.642 2.224 1.669.586 1.532 1.247 2.879 2.017 4.104a13.069 13.069 0 0 0-.104-2.353c-.026-.19-.015-.178-.117-.198-.585-.118-1.04-.371-1.264-1.045-.168-.506-.062-.972.194-1.378a2.31 2.31 0 0 1 .166-.23C9.435.383 10.067 0 11.022 0h4.168c.09 0 .18.01.267.028 1.294.272 1.787 1.044 1.95 2.324.008.06.012.119.012.178l.002 3.625c.414-.643.804-1.389 1.226-2.304.23-.495.427-.987.72-1.767.38-1.018 1.164-1.587 2.195-1.569l4.006.004c.237 0 .396.01.587.044.69.125 1.226.394 1.578 1.007.344.6.324 1.2.12 1.888-.317 1.06-.724 1.776-1.707 3.223l-.07.105c-.269.395-.49.71-.978 1.394l-.375.527c-.252.357-.456.65-.644.93l-.048.071c-.054.08-.097.149-.129.206.037.038.094.104.175.187l.106.11a47.3 47.3 0 0 0 .553.561c.972.98 1.408 1.446 1.912 2.09.459.587.776 1.06 1.043 1.61.377.776.383 1.67-.002 2.397-.344.647-.955 1.063-1.659 1.113l-.095.004-3.602-.005c-1.279.105-2.44-.396-3.404-1.441-.306-.331-.54-.604-1.043-1.203l-.237-.28c-.057-.07-.057-.07-.115-.137a3.332 3.332 0 0 0-.056.54c-.069 1.614-.869 2.446-2.445 2.522-.232.012-.462.018-.69.018-2.013 0-3.771-.464-5.333-1.415zm7.374-9.08z"/></symbol></svg>